<svg xmlns="http://www.w3.org/2000/svg" xmlns:xlink="http://www.w3.org/1999/xlink" width="576" height="580"><g><svg xmlns="http://www.w3.org/2000/svg" xmlns:xlink="http://www.w3.org/1999/xlink" width="576" height="580"/><svg xmlns="http://www.w3.org/2000/svg" width="576" height="580" version="1.0" viewBox="0 0 576 580"><g fill="#ede0cb" transform="matrix(.1 0 0 -.1 0 580)"><path d="M1325 5405c-143-15-171-21-250-48-147-50-220-95-348-217-72-68-92-94-130-173-25-50-52-112-60-137-43-134-49-391-12-465 51-101 155-111 248-25 42 40 47 29 47-100v-120h-97c-89 0-100-2-136-27-52-36-67-69-67-147 0-61 2-69 35-105 42-46 90-61 200-61 66 0 76-2 71-16-3-9-6-74-6-144v-129l-62-33c-88-47-103-72-102-166 0-88 16-128 67-166 32-25 40-26 161-26 75 0 136 5 149 11 65 34 107 101 107 173 0 49 7 61 40 70 25 7 61 22 90 36 14 7 33 34 68 100 133 250 248 407 414 565 85 81 249 205 272 205 3 0 22 12 43 26s81 46 133 70c52 25 103 49 112 54 10 6 26 10 36 10 18 0 62 34 62 48 0 4-11 24-25 44-32 48-32 55 8 72 76 35 107 84 107 170 0 58-3 69-27 96-22 24-41 33-88 40-33 6-79 10-102 10h-43v195c0 175-2 200-20 238-37 79-144 111-229 69-56-28-69-62-70-179l-1-103h-89c-100 0-101 0-101 78-1 107-29 162-101 199-51 26-112 28-304 8zm2193-22c-53-56-60-89-58-285 1-95 1-179 1-185-1-9-26-13-90-13-74 0-92-3-115-21-39-30-56-71-56-132 0-47 4-58 36-95 46-55 81-72 143-72 27 0 52-4 55-8 2-4-6-29-20-56-13-26-24-53-24-60s19-19 43-26c23-7 88-35 145-62 56-26 104-48 106-48s34-18 70-40 68-40 71-40c6 0 65-40 75-50 3-3 30-25 60-50 96-77 280-272 340-360 13-19 27-37 30-40s16-25 29-50 30-52 37-60 47-82 88-163c42-82 89-167 104-190 16-23 41-64 56-90 44-76 70-87 209-87 128 0 154 7 197 57 42 47 50 70 50 138 0 76-14 109-64 148l-36 28v309h59c72 0 119 19 151 60 55 72 45 174-25 246-24 24-57 34-119 34h-65l2 88c2 81 4 87 22 84 11-2 45-6 75-9 53-5 57-3 88 28 17 18 41 58 53 88 18 49 20 69 15 156-10 148-19 201-53 297-38 108-68 160-143 247-101 118-240 214-375 259-111 36-201 47-410 47-229 0-246-5-290-78-21-37-25-56-25-125v-82h-90c-104 0-95-11-104 134-4 75-9 93-28 113-31 34-81 53-137 53-41 0-51-5-83-37zm-793-1143c-92-9-152-21-250-50-38-12-79-24-90-28-39-11-226-115-290-160-144-102-308-268-389-395-71-110-148-282-184-412-41-143-47-189-47-360 0-188 6-223 68-420 53-169 102-264 205-397 27-35 69-90 94-123 55-73 108-121 211-195 124-88 261-163 362-198 205-70 303-86 505-79 318 10 576 97 841 286 152 108 280 251 364 406 14 28 35 64 46 82 23 36 97 237 110 298 31 138 34 173 33 360 0 110-4 220-8 245-21 118-127 375-198 478-71 105-183 234-261 302-73 64-207 160-222 160-3 0-30 15-59 34-94 60-235 114-386 146-99 21-338 32-455 20zm313-270c211-22 411-97 529-198 212-179 337-339 399-508 25-70 31-90 58-224 21-99 21-321 0-420-58-280-109-379-288-563-143-146-210-198-328-255-163-79-455-131-628-111-164 18-349 75-432 131-14 10-29 18-32 18-15 0-157 110-220 170-128 122-222 265-269 412-23 69-31 97-56 194-16 61-14 354 3 449 17 92 71 247 111 320 77 138 198 273 346 386 209 159 501 231 807 199zm-199-143c-8-7-24-25-35-42-18-27-19-57-24-515l-5-485-255-5c-166-3-262-9-275-17-34-19-56-50-65-89-13-56-2-90 47-144l45-50h337c375 0 372 0 431 66 17 20 36 48 42 63 14 34 20 1040 7 1096-15 63-30 85-75 111-46 27-146 33-175 11zM742 2587c-19-6-46-26-60-45-24-31-27-44-26-106 1-105 37-159 135-199l35-14-4-119c-2-66-7-122-11-126-4-5-51-10-104-12-86-4-102-7-132-30-91-70-81-235 18-280 25-11 174-36 220-36 4 0 7-32 7-70 0-84-10-93-65-56-56 38-164 40-203 3-44-41-52-78-52-242 0-204 17-289 83-425 23-47 44-87 47-90s26-30 51-60c85-101 236-206 369-257 103-39 144-45 351-46 202-2 204-2 239 23 49 34 80 71 80 96 0 46 29 62 115 66l80 3 5-55c6-64 27-103 73-130 73-45 171-10 226 81 19 31 21 49 21 195v161l78 5c110 8 148 26 173 84 17 37 20 57 14 100-7 60-30 94-86 129-29 19-38 32-41 57-3 36 9 28-183 121-159 77-286 166-429 300-151 142-215 219-327 397-109 171-122 194-159 292-26 67-36 77-87 85-45 7-53 16-53 61 0 57-40 113-99 138-40 17-248 18-299 1zm4005 0c-38-12-107-71-107-92 0-10-155-321-170-340-4-5-17-27-29-47-12-21-31-55-43-75-12-21-33-58-46-83-50-89-133-188-265-316-146-142-269-232-406-295-47-22-95-45-106-51s-47-21-80-33c-35-13-64-30-70-42-19-38-37-53-62-53-93 0-188-144-153-231 30-76 68-99 180-108l74-6-3-147c-3-157 4-197 46-255 46-64 154-64 219-1 38 35 56 109 52 208l-3 64 92 1h93v-81c0-98 15-138 69-187 29-26 53-38 88-43 66-10 422 2 475 16 24 6 61 16 83 22 88 24 248 112 313 173 59 54 131 142 158 190 81 148 114 289 114 494 0 134-10 168-63 219-32 31-38 33-113 35l-79 2-3 47c-3 46-3 47 35 57 21 6 55 11 75 11 70 0 128 72 128 160 0 58-10 82-53 128-29 30-35 32-99 32-56 0-69 3-78 19-5 11-10 73-10 138 0 119 0 119 31 149 48 45 69 95 69 162 0 68-23 112-79 149-30 20-46 23-135 22-56 0-118-6-139-12z"/></g></svg><svg xmlns="http://www.w3.org/2000/svg" width="576" height="580" version="1.0" viewBox="0 0 576 580"><g fill="#f5cb81" transform="matrix(.1 0 0 -.1 0 580)"><path d="M1325 5405c-132-14-170-21-230-40-149-49-242-105-366-223-74-70-94-96-133-175-74-150-101-279-95-457 5-121 23-171 78-207 55-37 121-26 186 31 17 14 38 26 48 26 15 0 17-12 17-120v-120H728c-94 0-105-2-141-27-52-36-67-69-67-147 0-61 2-69 35-105 42-46 90-61 199-61h76v-132c0-73-4-139-9-147s-35-28-67-45c-84-45-99-71-98-164 0-88 16-128 67-166 32-25 40-26 161-26 134 0 151 4 200 49 38 35 49 63 55 146 6 69 6 69 42 70 70 3 96 29 194 196 49 86 109 185 131 220 59 91 194 240 299 331 79 68 133 104 302 205 21 13 93 46 161 75 67 28 127 57 132 64 8 8 0 25-25 58-20 26-33 51-30 55 2 5 19 12 37 15 38 8 64 27 96 73 17 24 22 45 22 97 0 58-3 69-27 96-22 24-41 33-88 40-33 6-79 10-102 10h-43v195c0 175-2 200-20 238-37 79-140 110-226 70-57-27-74-72-74-192 0-55-3-101-7-103-5-2-46-1-93 2l-85 5-6 91c-7 100-24 142-66 171-70 47-115 51-338 28zm2192-24c-55-61-60-90-55-298l5-183h-92c-78 0-96-3-119-21-37-29-56-71-56-124s16-89 57-126c43-40 66-49 132-49 39 0 61-4 61-11s-13-34-30-61c-16-26-30-52-30-56s20-13 45-20c67-18 318-143 424-212 68-45 135-102 240-208 185-186 248-275 406-577 37-71 73-137 80-145s28-44 47-80c52-99 74-110 220-110 129 0 154 7 198 57 42 47 50 70 50 138 0 80-15 112-70 150-37 26-41 32-36 58 3 16 6 85 6 153v124h59c72 0 119 19 151 60 55 72 45 174-25 246-23 24-57 34-119 34h-65l-3 93c-2 50-3 93-2 95 0 1 17-5 37-13s56-15 80-15c37 0 50 6 76 32 17 17 40 57 52 87 18 49 20 69 15 156-10 148-19 201-53 297-38 108-68 160-143 247-98 114-240 214-363 255-119 40-198 50-412 50-240 1-256-3-300-77-21-38-25-56-25-129 0-46-2-87-4-89s-44-2-93 1l-88 5-7 113c-5 100-9 117-30 139-32 34-81 53-138 53-43 0-51-4-83-39zm-792-1141c-92-9-152-21-250-50-38-12-79-24-90-28-39-11-226-115-290-160-145-103-308-268-391-398-58-91-139-270-172-379-52-175-57-209-56-390 1-194 12-260 76-449 52-154 96-238 187-356 24-30 66-86 95-125 62-81 112-129 219-205 124-88 261-163 362-198 205-70 303-86 505-79 318 10 576 97 841 286 152 108 280 251 364 406 14 28 35 64 46 82 23 36 97 237 110 298 31 138 34 173 33 360 0 110-4 220-8 245-21 118-127 375-198 478-71 105-183 234-261 302-73 64-207 160-222 160-3 0-30 15-59 34-94 60-235 114-386 146-99 21-338 32-455 20zm313-270c211-22 411-97 529-198 250-211 386-406 433-617 34-154 40-201 40-325 0-123-7-182-39-320-37-159-105-283-233-422-243-264-431-357-808-397-132-14-338 13-465 61-194 73-396 228-527 403-71 94-109 167-141 267-23 69-31 97-56 194-16 61-14 354 3 449 17 92 71 247 111 320 77 138 198 273 346 386 209 159 501 231 807 199zm-207-151c-50-47-51-55-51-564v-475h-250c-263 0-283-3-322-46-9-11-21-38-27-61-14-53 3-101 57-155l36-38h332c267 0 338 3 366 15 39 16 93 72 110 114 14 34 20 1040 7 1096-15 63-30 85-75 111-56 33-149 34-183 3zM745 2588c-43-15-62-35-81-84s-14-127 12-175c17-34 66-72 119-93l40-16-3-118c-2-64-8-122-13-128-6-8-46-11-108-11-93 1-101-1-134-26-46-35-72-101-64-162 13-93 65-132 190-140 134-10 125-3 119-92-2-43-6-80-8-82s-22 9-45 24c-25 18-60 31-92 35-86 12-135-12-163-79-19-46-19-298 1-411 19-106 91-260 162-345 87-105 237-210 373-262 103-39 144-45 351-46 202-2 204-2 239 23 55 38 78 69 85 115 6 43 6 43 63 49 31 4 74 9 95 12 37 6 37 6 37-48 0-184 200-229 299-67 19 31 21 50 21 195v161l78 5c110 8 148 26 173 84 41 92 7 189-82 234-31 17-38 25-37 50 1 17-1 32-3 34s-62 30-133 62c-179 80-333 186-489 335-71 67-148 147-170 177-89 116-205 303-272 437-70 140-70 140-110 140-45 0-53 10-54 68-1 63-40 118-100 143-40 17-250 18-296 2zm4002-1c-53-16-93-59-118-126-11-31-25-62-32-69-6-7-36-64-67-125-76-152-200-366-256-440-26-34-107-122-181-195-148-145-274-237-408-297-44-19-96-44-115-54s-59-26-87-36c-47-15-53-20-53-45 0-30-15-40-61-40-62 0-130-59-155-133-14-41-14-56-4-92 22-79 84-115 197-115h65l-7-62c-3-35-2-118 3-185 9-110 12-127 36-158 52-68 161-67 227 1 34 35 34 35 38 155l3 119h188v-84c0-100 14-140 69-189 29-26 53-38 88-43 66-10 422 2 475 16 24 6 61 16 83 22 88 24 248 112 313 173 60 55 152 165 152 180 0 4 8 19 18 33 11 15 21 36 25 47 3 11 16 52 30 90 33 95 47 193 47 334 0 135-10 168-64 220-35 34-35 34-122 28l-87-5 7 56c4 31 8 57 9 59 2 1 36 6 76 9 57 6 80 13 102 32 42 35 59 73 59 132 0 58-10 82-53 128-29 30-35 32-103 32-56 0-73 3-78 16-3 9-6 71-6 138 0 122 0 122 31 152 48 45 69 95 69 162 0 68-23 112-79 149-30 20-46 23-135 22-56 0-118-6-139-12z"/></g></svg><svg xmlns="http://www.w3.org/2000/svg" width="576" height="580" version="1.0" viewBox="0 0 576 580"><g fill="#f3c26d" transform="matrix(.1 0 0 -.1 0 580)"><path d="M1325 5405c-132-14-170-21-230-40-149-49-242-105-366-223-74-70-94-96-133-175-74-150-101-279-95-457 5-121 23-171 78-207 56-38 122-26 190 34 34 30 34 30 93 17 33-8 64-12 68-9 5 3 18-3 30-15 11-11 20-15 20-10 0 20 24 9 56-24 53-55 126-60 202-14 49 30 66 71 65 154-1 38 2 76 6 83 6 9 53 13 168 15 92 2 168 8 179 14 17 10 17 11 2 12-27 0-21 25 10 46 34 22 56 44 45 44-4 0 0 7 10 14 17 13 18 33 13 297-3 156-9 302-15 323-13 54-40 86-92 113-51 26-112 28-304 8zm309-850c2-7-2-12-10-12s-14 4-14 8-8 10-17 12c-10 3-6 4 9 4 15-1 29-6 32-12zm356 845c-62-32-68-57-76-337-4-137-4-276 0-308 7-56 12-64 64-116 41-39 52-55 40-56-10-1-17 3-15 10 1 6-2 11-8 12-15 1-55 29-55 38 0 4 6 5 13 1 6-4 9-3 4 1-16 18-45 15-50-7-4-15-3-18 5-10s15 9 25 1c15-13 18-33 3-24s-12-15 4-31c8-8 22-14 31-14s13-5 10-10c-4-6 7-13 24-16 17-4 31-10 31-15s18-9 40-9 40-4 40-10c0-5-4-10-10-10-5 0-10-5-10-11s5-7 13-2c25 15 43 12 43-7 0-15-8-20-28-21-15-1-34-2-40-3-16-1-23-36-8-36 6 0 8 5 5 10-8 13 15 13 35 0 13-8 12-10-4-10-11 0-16-3-13-6 10-10-46-55-60-50-7 3-10-1-7-8s-7-18-21-26c-27-14-33-30-12-30 8 0 7-3-3-10-9-6-17-5-22 3-7 12-9 10-12-15 0-6-7-13-15-16-9-3-11 0-6 9 5 8 4 11-1 6s-9-14-9-20c0-7-8-11-18-11-9 1-15-2-12-6s-20-26-50-49c-58-44-209-193-266-262-56-68-55-78 2-14 119 135 264 265 362 325 32 19 81 49 108 67 42 26 171 87 309 145 14 6 20 13 13 15-6 2-25-3-42-12-38-19-60-8-90 47-20 38-20 38 13 38 40 0 58 26 23 33-15 3-11 5 11 6 50 2 115 20 137 39 48 40 65 78 65 146 0 58-3 69-27 96-22 24-41 33-88 40-33 6-79 10-102 10h-43v195c0 175-2 200-20 238-38 80-147 112-230 67zm110-830c20-6 21-8 5-8-11 0-29 3-40 8-25 11 1 11 35 0zm47-62c-3-8-6-5-6 6-1 11 2 17 5 13 3-3 4-12 1-19zm58 14c-17-12-16-31 4-44 14-9 16-14 7-23-15-16-43-15-43 2 0 7 5 13 11 13 5 0 1 7-10 15-19 15-19 15 0 30 11 8 25 15 30 15 7 0 8-3 1-8zm-129-201c-3-5-16-11-28-14-22-6-22-5-4 8 22 17 40 20 32 6zm1441 1060c-55-61-60-90-55-298l5-183h-92c-78 0-96-3-119-21-37-29-56-71-56-124s16-89 57-126c43-41 66-49 137-49 36 0 66-3 66-8 0-4-16-31-35-60-20-29-33-57-30-61 3-5 20-13 38-16 17-4 78-29 135-56s106-49 109-49c5 0 73-40 178-104 90-55 255-210 387-362 66-77 157-223 250-402 39-75 81-150 92-166 12-17 35-57 51-90 47-94 72-106 217-106 129 0 154 7 198 57 42 47 50 70 50 138 0 79-15 112-69 149l-40 28 5 151 5 152 67 6c83 7 111 18 142 59 55 72 45 173-25 246-24 25-57 34-124 34h-71v87c0 76-3 90-25 119-14 18-25 41-25 51 0 11 7 5 19-17 24-45 89-80 151-80 40 0 52 5 79 32 17 17 40 57 52 87 18 49 20 69 15 156-10 148-19 201-53 297-38 108-68 160-143 247-98 114-240 214-363 255-119 40-198 50-412 50-240 1-256-3-299-77-22-39-25-56-31-229l-7-188-67-1c-36 0-74-2-84-4-17-3-18 5-17 98 1 56 0 109-3 117s-8 62-10 118c-5 91-8 107-29 129-32 34-81 53-138 53-43 0-51-4-83-39zm1298-461c10-11 16-20 13-20s-13 9-23 20-16 20-13 20 13-9 23-20zm-2929-257c-6-14-5-15 5-6 7 7 10 15 7 18s-9-2-12-12zm-181-45c-35-20-44-40-28-56 13-13 18-12 41 12 15 15 23 26 17 25-22-4-27 2-15 16 15 18 12 18-15 3zm9-35c-5-5-12-12-16-18s-8-2-8 8c0 9 7 17 17 17 9 0 12-3 7-7zm186 16c0-5 5-7 10-4 6 3 10 8 10 11 0 2-4 4-10 4-5 0-10-5-10-11zm360-94c0-8 2-15 4-15s6 7 10 15c3 8 1 15-4 15-6 0-10-7-10-15zm78-17c6-6 18-8 28-6 14 3 12 5-9 10-19 3-25 2-19-4zm-333-87c3-6 14-9 25-8 24 2 15 17-11 17-11 0-18-4-14-9zm720-161c-92-9-152-21-250-50-38-12-79-24-90-28-39-11-226-115-290-160-145-103-308-268-391-398-58-91-139-270-172-379-52-175-57-209-56-390 1-194 12-260 76-449 52-154 96-238 187-356 24-30 66-86 95-125 62-81 112-129 219-205 124-88 261-163 362-198 205-70 303-86 505-79 318 10 576 97 841 286 152 108 280 251 364 406 14 28 35 64 46 82 23 36 97 237 110 298 31 138 34 173 33 360 0 110-4 220-8 245-21 118-127 375-198 478-71 105-183 234-261 302-73 64-207 160-222 160-3 0-30 15-59 34-94 60-235 114-386 146-99 21-338 32-455 20zm313-270c211-22 411-97 529-198 250-211 386-406 433-617 34-154 40-201 40-325 0-123-7-182-39-320-37-159-105-283-233-422-243-264-431-357-808-397-132-14-338 13-465 61-194 73-396 228-527 403-71 94-109 167-141 267-23 69-31 97-56 194-16 61-14 354 3 449 17 92 71 247 111 320 77 138 198 273 346 386 209 159 501 231 807 199zm-207-151c-50-47-51-55-51-564v-475h-250c-263 0-283-3-322-46-9-11-21-38-27-61-14-53 3-101 57-155l36-38h332c267 0 338 3 366 15 39 16 93 72 110 114 14 34 20 1040 7 1096-15 63-30 85-75 111-56 33-149 34-183 3zM725 4121c-97-5-114-9-143-31-48-35-62-69-62-144 0-61 2-69 35-105 48-52 92-62 294-63 186-1 204 4 259 67 38 42 46 71 39 132-6 53-29 87-83 125-36 25-46 27-134 26-52-1-144-4-205-7zm768-333c-15-20-25-38-20-38 3 0 12 11 21 25 17 26 16 35-1 13zm-68-109c-4-6-5-12-2-15 2-3 7 2 10 11 7 17 1 20-8 4zm-679-227c-76-42-91-69-90-160 0-88 16-128 67-166 32-25 40-26 161-26 134 0 152 4 199 49 42 39 57 83 57 173 0 71-3 81-25 104-43 43-85 54-207 54-104 0-117-3-162-28zm514-42c-8-5-12-12-9-15 4-3 12 1 19 10 14 17 11 19-10 5zm-515-822c-43-15-62-35-81-84s-14-127 12-176c18-36 78-80 133-98 36-12 41-17 35-34-4-12-9-67-11-123-5-119 4-111-130-110-84 0-95-2-126-26-46-35-72-101-64-162 13-93 65-132 190-140 127-9 127-9 127-54 0-21-3-59-6-84l-7-46-43 31c-30 21-62 34-97 38-86 12-135-12-163-79-19-46-19-298 1-411 19-106 91-260 162-345 87-105 237-210 373-262 103-39 144-45 351-46 202-2 204-2 239 23 87 61 100 109 100 377 0 99 3 183 6 186 4 3 18-3 32-13 22-18 26-19 36-4 11 14 13 14 25 0 8-9 20-16 27-16 8 0 14-9 14-21s4-17 11-14c6 4 7 19 4 37-4 17-2 42 5 57 28 61 48 96 56 94 5-1 16 4 24 10 13 11 13 10 1-6-8-9-16-15-19-12s-15-19-26-48c-19-48-21-72-21-297 1-223 2-249 20-285 59-118 207-110 284 16 19 31 21 50 21 195v161l78 5c110 8 148 26 173 84 27 61 20 140-18 185-29 35-109 78-137 73-10-1-28 1-40 6-20 8-20 9-1 10 29 2 68 10 73 15 9 9-37 43-88 64-84 36-202 96-253 130-25 17-48 31-52 31-16 0-137 104-279 239-68 64-156 171-208 251-63 97-167 271-180 303-7 17-26 58-43 91-30 61-30 61-74 61s-44 0-48 50c-5 74-10 90-39 125-42 49-81 60-213 59-64 0-129-5-146-11zm388-1035c-7-2-19-2-25 0-7 3-2 5 12 5s19-2 13-5zm174-365c-3-8-6-5-6 6-1 11 2 17 5 13 3-3 4-12 1-19zm253 7c11-13 8-13-21-3-44 15-48 18-17 18 14 0 31-7 38-15zm-123-11c-3-3-12-4-19-1-8 3-5 6 6 6 11 1 17-2 13-5zm173-4c0-5 6-7 13-5 6 3 18-4 25-15 12-20 12-20-15-6-15 8-35 20-43 25-13 9-13 11 3 11 9 0 17-4 17-10zm530-5c0-6-73-25-78-20-3 3 6 9 19 14 26 10 59 14 59 6zm-280-200c0-14-4-25-9-25-4 0-6 11-3 25 2 14 6 25 8 25s4-11 4-25zm2890 1612c-19-7-42-16-51-22-28-17-66-83-79-135-7-27-16-50-22-50-5 0-22-28-38-62-15-35-63-124-106-198-42-74-88-155-102-180-109-192-415-482-617-584-87-44-249-114-278-122-25-6-28-11-25-35 5-30-10-39-65-39-60 0-129-60-153-133-14-41-14-56-4-92 22-79 84-115 197-115h65l-7-62c-3-35-2-118 3-185 9-110 12-127 36-158 52-68 161-67 227 1 34 35 34 35 38 152 2 72 8 124 16 135 11 16 13 16 18 2 7-17 102-21 127-5 12 8 9 10-12 10-16 0-28 5-28 10 0 6 8 10 17 8 13-2 19 8 27 42l10 45 7-65c4-36 7-102 8-146 1-98 17-139 70-187 52-47 88-52 331-43 161 5 210 10 283 30 127 35 267 108 345 181 60 55 152 165 152 180 0 4 8 19 18 33 11 15 21 36 25 47 3 11 16 52 30 90 33 95 47 193 47 335 0 132-7 157-59 213-33 35-38 37-97 37-116 0-146-26-155-135l-6-70v80c0 78 17 135 41 135 5 0 2 8-6 18-11 11-13 24-8 37 9 20 9 20 10 0 2-14 4-10 9 10 5 25 12 31 46 37 22 4 57 7 77 7 71 2 128 73 128 161 0 57-15 93-57 132-25 24-37 27-103 30l-75 3-5 130c-5 130-5 130 31 170 53 58 69 96 69 163 0 68-23 112-79 149-30 20-46 23-135 22-56 0-117-6-136-12zm200-1001c0-23-16-27-17-5-1 10 2 19 8 19 5 0 9-6 9-14zm-45-116c-3-5-1-10 5-10s8-5 5-10c-4-6-11-8-16-5-12 8-11 35 2 35 5 0 7-4 4-10zm-3-89c-8-22-9-22-23-5-9 11-9 15-1 10 7-4 15-1 18 9 4 9 8 14 10 12 3-2 1-14-4-26zm-91-129-5-97-6 105c-4 58-4 112-1 120 10 30 16-30 12-128zm-34 86c-3-8-6-5-6 6-1 11 2 17 5 13 3-3 4-12 1-19zm70-8c1-11-3-23-9-26-6-4-8-2-4 4 3 6 2 13-4 17s-8 11-5 16c10 15 21 10 22-11zm-5-102c-9-9-12-7-12 12s3 21 12 12 9-15 0-24zm1-64c-4-12-8-13-14-3-9 15-2 32 11 24 5-3 6-13 3-21zm73-201c-8-15-15-25-16-21 0 12 23 58 27 54 3-2-2-17-11-33zM3814 773c-1-7-2-17-3-23 0-5-8-7-16-4-10 4-15 20-15 47 0 41 0 41 17 17 10-14 17-31 17-37zM1766 898c3-4 9-8 15-8 5 0 9 4 9 8 0 5-7 9-15 9s-12-4-9-9zm114-57c0-17 2-31 4-31 8 0 13 51 5 56-5 3-9-9-9-25z"/></g></svg><svg xmlns="http://www.w3.org/2000/svg" width="576" height="580" version="1.0" viewBox="0 0 576 580"><g fill="#dea53c" transform="matrix(.1 0 0 -.1 0 580)"><path d="M1325 5405c-132-14-170-21-230-40-149-49-242-105-366-223-74-70-94-96-133-175-74-150-101-279-95-457 5-121 23-171 78-207 57-38 122-26 191 36 22 20 42 30 55 27 11-2 53-1 94 3 68 7 74 6 81-14 43-112 183-133 270-40 23 25 25 35 28 141l4 114h152c172 0 187 5 250 83 31 39 31 39 31 290-1 139-4 278-9 309-9 72-38 115-96 144-52 27-112 29-305 9zm664-5c-64-34-69-57-72-385-2-327-3-322 75-389 55-47 90-56 226-56 165 0 209 14 260 87 17 24 22 45 22 97 0 58-3 69-27 96-22 24-41 33-88 40-33 6-79 10-102 10h-43v195c0 175-2 200-20 238-38 80-147 112-231 67zm1528-19c-55-61-60-90-55-298l5-183h-92c-78 0-96-3-119-21-37-29-56-71-56-124s16-89 57-126c43-41 66-49 137-49 67 0 86-9 61-30-8-6-25-32-39-55l-24-44 51-17c94-31 311-141 417-212 105-69 267-218 378-349 70-83 176-253 263-421 38-75 78-143 87-150s16-16 15-20 13-36 30-72c49-98 72-110 219-110 129 0 154 7 198 57 42 47 50 70 50 138 0 79-15 112-69 150-23 15-41 32-41 37s-4 6-10 3c-5-3-10-2-10 4 0 5 5 13 10 16 6 4 10 62 10 141v134h64c77 0 124 18 156 60 64 83 35 219-56 268-30 16-371 27-409 13-28-10-29-10-11 4s19 19 7 50c-7 19-10 39-6 44 3 5 1 12-5 16s-8 10-5 15 0 12-6 15c-7 5-3 15 11 30 12 13 26 40 31 62 12 52 11 270-1 315-16 55-100 142-173 178-58 27-71 30-184 31l-123 2v207h109c198 0 281-30 396-140 124-121 165-231 165-448 0-99 3-130 17-153 23-38 87-69 145-69 38 0 51 5 77 32 17 17 40 57 52 87 18 49 20 69 15 156-10 148-19 201-53 297-38 108-68 160-143 247-98 114-240 214-363 255-119 40-198 50-412 50-237 1-254-3-297-71-22-36-23-50-28-233l-5-195-87-3-88-3v88c-1 48-5 148-10 222-8 119-12 137-32 158-32 34-82 53-138 53-43 0-51-4-83-39zm1271-1898c-10-2-26-2-35 0-10 3-2 5 17 5s27-2 18-5zm-118-36c0-2-10-12-22-23-23-19-23-19-4 4 18 21 26 27 26 19zm-40-55c0-5-7-17-16-28-8-10-14-14-11-9 2 6 7 18 10 28 7 17 17 23 17 9zm-1905 848c-92-9-152-21-250-50-38-12-79-24-90-28-39-11-226-115-290-160-145-103-308-268-391-398-58-91-139-270-172-379-52-175-57-209-56-390 1-194 12-260 76-449 52-154 96-238 187-356 24-30 66-86 95-125 62-81 112-129 219-205 124-88 261-163 362-198 205-70 303-86 505-79 318 10 576 97 841 286 152 108 280 251 364 406 14 28 35 64 46 82 23 36 97 237 110 298 31 138 34 173 33 360 0 110-4 220-8 245-21 118-127 375-198 478-71 105-183 234-261 302-73 64-207 160-222 160-3 0-30 15-59 34-94 60-235 114-386 146-99 21-338 32-455 20zm313-270c211-22 411-97 529-198 250-211 386-406 433-617 34-154 40-201 40-325 0-123-7-182-39-320-37-159-105-283-233-422-243-264-431-357-808-397-132-14-338 13-465 61-194 73-396 228-527 403-71 94-109 167-141 267-23 69-31 97-56 194-16 61-14 354 3 449 17 92 71 247 111 320 77 138 198 273 346 386 209 159 501 231 807 199zm-207-151c-50-47-51-55-51-564v-475h-250c-263 0-283-3-322-46-9-11-21-38-27-61-14-53 3-101 57-155l36-38h332c267 0 338 3 366 15 39 16 93 72 110 114 14 34 20 1040 7 1096-15 63-30 85-75 111-56 33-149 34-183 3zM725 4121c-97-5-114-9-143-31-48-35-62-69-62-144 0-61 2-69 35-105 48-53 89-61 298-61 174 0 174 0 216 31 112 80 102 237-19 299-42 21-87 23-325 11zm21-669c-76-42-91-69-90-160 0-88 16-128 67-166 32-25 40-26 161-26 134 0 152 4 199 49 42 38 57 83 57 171 0 68-3 80-24 103-41 45-87 57-210 57-102 0-115-3-160-28zm-1-864c-43-15-62-35-81-84-30-79-4-180 58-228 63-47 108-58 222-54 119 3 144 15 183 84 19 33 21 48 16 109-8 98-35 143-102 171-40 17-250 18-296 2zm4005-1c-19-7-42-16-51-22-30-18-68-85-80-140-7-30-16-53-21-52s-19-20-31-48c-12-27-61-120-110-205s-98-171-109-190c-46-81-126-175-256-302-141-136-266-230-378-283-32-15-90-42-129-60-38-18-87-39-109-46-44-16-57-36-32-54 14-11 13-13-15-19-17-3-45-6-61-6-61 0-130-59-154-133-14-41-14-56-4-92 22-79 84-115 197-115h65l-7-62c-3-35-2-118 3-185 9-110 12-127 36-158 52-67 161-67 227 1 33 34 33 34 41 226 5 106 11 198 12 204 3 6 37 10 87 9h84l5-175c3-97 10-186 17-200 6-14 29-42 51-62 53-48 88-53 332-44 161 5 210 10 283 30 127 35 267 108 345 181 60 55 152 165 152 180 0 4 8 19 18 33 11 15 21 36 25 47 3 11 16 52 30 90 33 95 47 193 47 335 0 132-7 157-59 213-33 35-38 37-97 37-144 0-154-19-154-277 0-252-3-263-120-386-96-101-146-132-258-162-65-16-125-21-87-6 18 7-74 6-173-2-34-3-34-3-28 47 3 28 6 71 6 96v45l106-3c121-4 168 8 255 67 41 27 61 50 84 95 30 60 30 60 30 236 0 152-2 180-18 203-9 15-15 27-12 27s-1 14-10 30c-15 28-14 32 5 52 11 12 19 27 17 33-3 6 40 10 127 10 185 0 271 12 307 43 42 35 59 73 59 132 0 58-10 82-53 128-29 30-35 32-104 32-70 0-74 1-83 26-6 14-10 74-10 133 0 107 0 107 36 142 53 50 74 98 74 167 0 68-23 112-79 149-30 20-46 23-135 22-56 0-117-6-136-12zm-113-809c-3-7-5-2-5 12s2 19 5 13c2-7 2-19 0-25zm-680-800c-3-8-6-5-6 6-1 11 2 17 5 13 3-3 4-12 1-19zM821 1971c-7-5-58-8-111-8-92 1-100-1-133-26-46-35-72-101-64-162 14-96 65-132 200-142 51-3 99-9 106-13 15-8 17-80 5-143l-6-27-44 32c-30 21-61 34-97 38-86 12-135-12-163-79-19-46-19-298 1-411 19-106 91-260 162-345 87-105 237-210 373-262 103-39 144-45 351-46 202-2 204-2 239 23 89 62 100 108 100 418 0 199-1 211-23 252-15 29-40 54-73 74-49 31-50 31-196 31h-148v113c0 131-11 164-65 209-77 64-147 64-212 0-29-27-33-29-33-11 0 11 6 28 14 39 7 10 11 31 10 47-3 20 0 27 8 22 7-4 8-3 4 4s-15 12-24 12 1 9 23 19c71 33 115 96 115 165 0 44-49 119-101 153-37 24-53 28-124 30-44 1-87-2-94-6zm329-1061c57-29 76-33 172-38l108-5V670h-57c-70 1-173 14-230 29-40 11-119 65-193 131l-35 31 38-26c27-21 37-24 37-12 0 8-7 20-15 27-11 9-12 16-3 30 7 10 16 16 22 13 5-4 7 1 3 12-7 17-6 17 18 1 21-14 25-14 25-2 0 10 6 13 18 9 15-6 15-4-2 15-12 14-14 22-7 22s9 5 6 10c-4 6-11 7-17 4-7-5-8-2-3 5 5 9 13 8 29-7 11-11 50-34 86-52zm973 250c-87-13-145-59-185-145-22-48-23-60-23-290 1-217 3-244 20-280 58-118 207-110 284 16 19 31 21 50 21 195v161l78 5c110 8 148 26 173 84 41 91 7 190-80 233-42 21-206 33-288 21zm2428-322c-1-38 3-49 19-58 15-8 25-7 40 3 23 16 17 27-15 27s-38 11-15 27c12 8 17 20 13 26-5 8-2 8 9 0 14-13 28-8 28 9 0 4-13 7-29 6s-27-6-25-10c3-4 1-8-5-8-5 0-12 6-14 13-3 6-6-9-6-35zm-41-35c0-13 14-28 28-31 10-2 10 2 2 18-10 19-30 28-30 13zm-10-35c0-7 5-20 10-28 9-13 10-13 10 0 0 12 2 12 9 1 6-10 10-10 16-1 4 6 5 12 4 13-2 1-14 8-26 15-19 10-23 10-23 0zm60-8c0-5 5-10 10-10 6 0 10 5 10 10 0 6-4 10-10 10-5 0-10-4-10-10zm52 1c2-7 7-12 11-12 12 1 9 15-3 20-7 2-11-2-8-8zm-66-37c-11-8-16-14-10-14 13 0 39 18 34 24-3 2-14-2-24-10z"/></g></svg><svg xmlns="http://www.w3.org/2000/svg" width="576" height="580" version="1.0" viewBox="0 0 576 580"><g fill="#a49d8a" transform="matrix(.1 0 0 -.1 0 580)"><path d="M1325 5405c-132-14-170-21-230-40-149-49-242-105-366-223-74-70-94-96-133-175-74-150-101-279-95-457 5-121 23-171 78-207 58-39 124-25 199 41 32 29 32 29 32 177 0 166 16 239 71 322 48 73 165 176 239 210 58 27 78 30 188 35l122 5v-211l-107-4c-80-2-118-8-146-22-58-29-135-103-163-157-22-44-24-60-24-186 0-124 3-142 23-177 33-58 68-80 125-79 55 1 95 19 132 58 23 25 25 35 28 141l4 114h152c172 0 187 5 250 83 31 39 31 39 31 290 0 139-4 278-8 309-10 72-39 115-97 144-52 27-112 29-305 9zm664-5c-64-34-68-57-71-387-3-291-3-291 27-333 17-24 50-57 73-74 43-30 47-31 170-35 185-5 237 11 290 86 17 24 22 45 22 97 0 58-3 69-27 96-22 24-41 33-88 40-33 6-79 10-102 10h-43v195c0 175-2 200-20 238-38 80-147 112-231 67zm1528-19c-55-61-60-90-55-298l5-183h-92c-78 0-96-3-119-21-37-29-56-71-56-124s16-89 57-126c48-45 67-50 211-52 160-2 179 4 258 84l49 50 2 167c2 92-1 234-7 316-8 134-11 151-32 173-32 34-82 53-138 53-43 0-51-4-83-39zm568 20c-51-13-73-30-99-74-24-42-24-45-28-338-3-295-3-295 24-331 57-74 82-82 278-88l175-5 6-101c6-120 23-156 88-191 79-41 176-22 213 42 14 26 18 58 19 193 1 157 1 163-25 206-35 59-109 122-174 146-41 16-77 20-167 20h-115v212l148-4c145-4 150-5 223-40 138-65 257-217 288-366 6-29 11-109 11-178 0-101 3-132 17-155 23-38 87-69 145-69 38 0 51 5 77 32 17 17 40 57 52 87 18 49 20 69 15 156-10 148-19 201-53 297-38 108-68 160-143 247-131 153-284 243-482 287-81 17-442 29-493 15zM2725 4240c-92-9-152-21-250-50-38-12-79-24-90-28-39-11-226-115-290-160-145-103-308-268-391-398-58-91-139-270-172-379-52-175-57-209-56-390 1-194 12-260 76-449 52-154 96-238 187-356 24-30 66-86 95-125 62-81 112-129 219-205 124-88 261-163 362-198 205-70 303-86 505-79 318 10 576 97 841 286 152 108 280 251 364 406 14 28 35 64 46 82 23 36 97 237 110 298 31 138 34 173 33 360 0 110-4 220-8 245-21 118-127 375-198 478-71 105-183 234-261 302-73 64-207 160-222 160-3 0-30 15-59 34-94 60-235 114-386 146-99 21-338 32-455 20zm313-270c211-22 411-97 529-198 250-211 386-406 433-617 34-154 40-201 40-325 0-123-7-182-39-320-37-159-105-283-233-422-243-264-431-357-808-397-132-14-338 13-465 61-194 73-396 228-527 403-71 94-109 167-141 267-23 69-31 97-56 194-16 61-14 354 3 449 17 92 71 247 111 320 77 138 198 273 346 386 209 159 501 231 807 199zm-207-151c-50-47-51-55-51-564v-475h-250c-263 0-283-3-322-46-9-11-21-38-27-61-14-53 3-101 57-155l36-38h332c267 0 338 3 366 15 39 16 93 72 110 114 14 34 20 1040 7 1096-15 63-30 85-75 111-56 33-149 34-183 3zM725 4120c-97-4-114-8-143-30-48-35-62-69-62-144 0-61 2-69 35-105 48-53 89-61 298-61 174 0 174 0 215 30 116 84 99 253-30 305-43 17-52 17-313 5zm4103 0c-85-4-100-8-124-30-68-64-74-191-11-258 48-52 69-56 255-53 192 3 223 10 262 61 30 39 41 82 33 135-9 61-63 131-107 140-39 7-211 10-308 5zM746 3452c-76-42-91-69-90-160 0-88 16-128 67-166 32-25 40-26 161-26 134 0 152 4 199 49 42 38 57 83 57 170s-10 106-80 141c-32 17-59 20-152 20-104 0-117-3-162-28zm3982 18c-73-22-118-88-118-173 0-56 46-145 89-174 31-21 46-23 153-23 129 0 154 7 198 57 42 47 50 70 50 138 0 82-16 114-76 154-46 30-50 31-158 30-61 0-123-4-138-9zM745 2588c-43-15-62-35-81-84-30-79-4-180 58-227 59-45 104-57 205-57 115 0 160 19 197 83 22 37 25 51 20 102-7 86-11 100-40 135-42 49-81 60-213 59-64 0-129-5-146-11zm4002-1c-49-15-85-50-110-107-39-87-12-187 63-238 33-23 41-24 163-20 128 5 128 5 163 39 53 50 74 98 74 167 0 68-23 112-79 149-30 20-46 23-135 22-56 0-118-6-139-12zM640 1962c-79-8-139-97-127-187 14-97 63-130 210-145 216-20 309-10 364 42 31 29 57 101 49 138-8 44-50 100-97 132-42 28-42 28-203 26-89-2-177-4-196-6zm4113-2c-51-16-90-63-104-124-6-30-9-65-6-78 10-38 49-90 87-116 34-23 39-24 175-18 196 8 249 17 281 46 39 37 54 73 54 130s-15 93-57 132c-28 27-29 27-213 32-111 4-198 2-217-4zm-668-338c-82-80-136-137-120-125 30 22 284 273 275 273-3-1-72-67-155-148zm445-95c-77-40-85-59-88-211l-3-133-167-5c-180-5-203-11-254-65-54-56-58-81-58-346 0-275 3-290 69-350 52-47 88-52 331-43 161 5 210 10 283 30 127 35 267 108 345 181 60 55 152 165 152 180 0 4 8 19 18 33 11 15 21 36 25 47 3 11 16 52 30 90 33 95 47 193 47 335 0 132-7 157-59 213-33 35-38 37-97 37-144 0-154-19-154-277 0-135-4-203-14-237-16-53-102-165-169-220-91-74-229-116-385-116h-103l3 103 3 102 122 2c107 1 129 4 176 26 69 31 130 86 156 141 19 38 21 61 21 227 0 185 0 185-32 216-70 66-127 78-198 40zm-3500-23-40-36v-183c0-162 2-189 20-230 32-76 55-100 130-139 65-35 79-38 180-43l110-6V664l-67 4c-106 5-203 21-250 42-98 43-250 193-288 284-12 27-15 85-15 249v214l-41 29c-25 17-60 30-92 34-86 12-135-12-163-79-19-46-19-298 1-411 19-106 91-260 162-345 87-105 237-210 373-262 103-39 144-45 351-46 202-2 204-2 239 23 90 63 95 84 95 417 0 261 2 254-84 321-43 32-43 32-195 32h-153l-7 133c-8 150-14 163-84 208-69 43-129 41-182-7zm2871-44c-13-11-19-20-14-20 6 0 18 9 28 20 23 25 17 25-14 0zm-511-296c-65-8-80-14-120-50-53-48-77-119-60-179 22-79 84-115 197-115h65l-7-62c-3-35-2-118 3-185 9-110 12-127 36-158 52-67 161-67 227 1 32 33 32 33 40 181 10 174 2 365-16 409-18 43-71 101-119 129-33 19-60 25-127 29-46 2-100 2-119 0zm-1326-18c-51-22-100-73-125-128-23-51-24-61-24-293 1-218 2-244 20-280 59-118 207-110 284 16 19 31 21 50 21 195v161l78 5c110 8 148 26 173 84 41 92 7 189-82 234-33 17-58 20-176 20-93-1-148-5-169-14z"/></g></svg><svg xmlns="http://www.w3.org/2000/svg" width="576" height="580" version="1.0" viewBox="0 0 576 580"><g fill="#b88e44" transform="matrix(.1 0 0 -.1 0 580)"><path d="M1990 5398c-66-44-69-59-72-385-3-291-3-291 27-333 17-24 49-56 73-73 40-29 50-32 143-35 195-8 265 11 316 87 18 26 23 48 23 95 0 105-39 136-175 136h-85v198c0 185-1 201-22 242-32 61-66 83-135 88-48 3-64 0-93-20zm1542-3c-57-48-62-73-62-294v-201h-85c-104 0-137-14-166-72-42-83-6-184 83-230 29-15 61-19 170-21 155-2 176 5 254 84l49 50 2 167c3 237-11 446-32 478-40 61-161 83-213 39zm-2247 4c-227-21-408-109-573-278-79-80-144-192-175-301-22-75-40-280-33-359 18-177 131-228 266-120l40 32v148c0 166 16 239 71 322 48 73 165 176 239 210 58 27 78 30 188 35l122 5v-211l-107-4c-80-2-118-8-146-22-58-29-135-103-163-157-22-44-24-60-24-184 0-115 3-142 20-174 30-60 63-81 127-81 60 0 95 15 133 55 23 25 25 35 28 141l4 114h152c172 0 187 5 250 83 31 39 31 39 30 250 0 267-10 392-35 432-10 17-36 41-57 53-35 20-53 22-158 21-66-1-155-5-199-10zm2795-1c-45-13-78-43-101-93-15-35-18-78-21-326-3-285-3-285 24-321 57-74 82-82 278-88l175-5 6-101c6-120 23-156 88-191 79-41 176-22 213 42 14 26 18 58 19 193 1 157 1 163-25 206-35 59-109 122-174 146-41 16-77 20-167 20h-115v212l148-4c145-4 150-5 223-40 138-65 257-217 288-366 6-29 11-112 11-183 0-131 0-131 33-164s88-55 141-55c43 0 101 65 122 138 39 131-25 454-117 592-114 170-309 313-492 359-145 37-469 54-557 29zM2739 4239c-104-10-304-57-378-90-66-29-239-128-286-163-128-96-235-204-338-340-54-72-161-287-195-396-56-176-67-241-65-415 1-182 13-257 73-436 56-170 112-272 236-429 46-58 93-118 106-134 33-43 215-175 339-246 188-108 424-170 646-170 170 0 304 24 508 90 193 62 456 234 570 373 100 121 117 145 147 197 17 30 42 72 55 92 47 69 121 292 148 443 18 97 20 373 4 459-34 183-138 418-253 573-146 197-303 329-546 457-208 111-495 161-771 135zm311-269c191-20 392-94 505-186 184-149 353-355 402-492 68-187 78-243 78-457 0-161-4-214-18-270-33-127-58-199-95-274-56-112-240-313-377-412-226-164-624-236-918-165-141 34-235 74-348 148-157 104-311 265-393 412-21 37-56 126-79 199-42 132-42 132-42 367v235l44 125c24 69 53 143 64 165 101 200 338 425 542 516 187 83 403 113 635 89zm-226-166c-20-21-34-46-35-62 0-15-1-234-2-487-1-254-6-466-11-474-8-12-50-13-255-8-233 7-248 6-278-13-33-20-55-54-67-103-9-38 24-106 70-147l35-30h327c320 0 329 1 372 23 29 14 57 39 78 71l32 49-2 558c-3 548-3 558-24 586-39 52-81 73-147 73-55 0-62-2-93-36zM738 4121c-124-6-128-7-159-36-86-82-78-222 16-276 24-14 67-19 230-24 200-7 200-7 242 24 114 83 103 246-21 302-44 20-68 20-308 10zm4090 0c-84-5-100-9-124-31-71-66-73-202-3-267 51-46 85-53 229-43 73 4 138 6 145 4 25-10 91 16 123 49 72 74 62 181-23 256-33 29-41 31-108 31-40 0-88 2-107 4s-79 1-132-3zM750 3452c-75-39-104-91-96-176 7-70 38-130 83-157 30-18 46-20 161-17 124 3 130 4 166 32 52 39 76 95 76 178 0 86-12 110-70 142-43 24-58 26-156 26-99 0-114-3-164-28zm3978 18c-73-22-118-88-118-173 0-58 54-154 100-179 46-24 222-26 277-3 78 33 113 91 113 188 0 73-14 98-83 148-39 28-44 29-151 28-61 0-123-4-138-9zM747 2586c-53-20-65-32-84-92-14-45-15-61-4-108 16-73 42-103 118-137 54-25 75-29 153-29 112 0 157 19 194 82 22 39 23 50 17 120-8 91-26 122-91 156-38 19-59 22-155 22-65-1-125-6-148-14zm4023 5c-72-15-115-58-143-143-25-75 5-160 74-206 32-23 41-24 156-20 119 4 123 5 160 34 53 43 83 105 83 171 0 65-18 103-67 140-33 26-44 28-132 30-53 1-112-2-131-6zM714 1961c-124-7-151-18-178-76-42-88-25-173 43-218 32-21 55-27 137-33 55-3 103-9 108-12s45-4 89-3c85 2 137 18 174 53 31 29 57 101 49 138-8 44-49 100-97 132-46 31-66 32-325 19zm4039-1c-51-16-90-63-104-124-6-30-9-65-6-78 10-38 49-90 87-116 34-23 40-23 165-18 203 8 259 17 291 46 62 58 73 160 24 228-16 23-38 46-49 51-26 14-368 23-408 11zm-668-338c-82-80-136-137-120-125 31 22 284 273 275 273-3-1-72-67-155-148zm445-95c-77-40-85-59-88-211l-3-133-167-5c-180-5-203-11-254-65-54-57-59-83-57-336 0-128 5-249 10-270 13-51 61-102 115-123 39-15 71-16 247-11 250 7 340 27 506 112 95 49 120 67 185 136 41 44 91 106 111 139 80 132 124 313 125 510 0 120-11 160-59 210-36 38-41 40-97 40-69 0-123-23-141-60-9-17-13-84-13-216 0-135-4-205-14-238-16-53-102-165-169-220-91-74-229-116-385-116h-103l3 103 3 102 122 2c107 1 129 4 176 26 69 31 130 86 156 141 19 38 21 61 21 227 0 185 0 185-32 216-70 66-127 78-198 40zm-3500-23-40-36v-183c0-162 2-189 20-230 32-76 55-100 130-139 65-35 79-38 180-43l110-6V664l-67 4c-106 5-203 21-250 42-98 43-250 193-288 284-12 27-15 84-15 245v210l-32 24c-53 39-75 48-131 49-61 2-99-18-125-66-14-26-17-59-16-211 1-212 13-275 79-410 79-164 206-285 402-383 106-54 184-70 380-78 205-7 244-1 303 53 60 53 64 81 65 370 0 284 2 274-84 341-43 32-43 32-195 32h-153l-7 133c-8 150-14 163-84 208-69 43-129 41-182-7zm2866-49c-11-8-15-15-9-15s16 7 23 15c16 19 11 19-14 0zm-516-294c-112-18-170-85-170-197 0-48 32-103 73-122 15-7 64-16 108-20l81-7-1-162c-2-178 5-210 55-257 39-35 124-37 175-3 70 47 75 73 70 436-2 157-9 185-61 245-56 63-104 85-201 90-46 3-104 1-129-3zm-1316-15c-51-23-100-73-124-128-19-44-23-76-27-198-6-183 10-365 35-400 51-70 153-76 222-14 63 58 70 81 70 258 0 142 2 156 18 157 9 0 52 4 95 8 88 9 112 25 143 92 15 36 16 48 6 96-13 64-28 83-90 118-42 23-54 25-181 25-91-1-146-5-167-14z"/></g></svg><svg xmlns="http://www.w3.org/2000/svg" width="576" height="580" version="1.0" viewBox="0 0 576 580"><g fill="#83744e" transform="matrix(.1 0 0 -.1 0 580)"><path d="M1990 5398c-69-46-71-56-68-395l3-302 45-46c25-26 56-52 70-60 41-21 117-27 237-20 126 8 158 22 200 84 18 26 23 48 23 95 0 105-39 136-175 136h-85v198c0 185-1 201-22 242-32 61-66 83-135 88-48 3-64 0-93-20zm1542-3c-57-48-62-73-62-294v-201h-85c-104 0-137-14-166-72-42-82-7-182 81-229 29-16 57-19 168-19 91 0 143 4 166 14 45 19 111 79 126 115 8 20 10 112 8 323-3 332-4 333-81 369-60 27-119 25-155-6zm-2247 4c-227-21-408-109-573-278-79-80-144-192-175-301-22-75-40-280-33-359 18-174 130-228 261-124 35 28 35 28 35 160 0 227 34 319 162 445 112 110 173 137 331 150 65 5 126 7 133 4 11-4 14-30 14-111v-105h-93c-115 0-163-15-241-76-45-35-65-60-88-110-29-63-30-67-26-197 3-118 6-136 26-170 33-51 72-70 138-65 37 3 63 12 87 31 48 37 61 81 53 183-9 107-11 106 177 102 143-3 144-3 179 24 20 15 46 44 59 64 22 36 22 38 17 335-6 336-8 343-86 387-35 20-53 22-158 21-66-1-155-5-199-10zm2795-1c-45-12-78-43-101-93-17-36-19-69-19-328v-287l41-45c61-66 105-79 238-71 60 4 132 4 160 0l51-7v-99c0-111 11-143 60-178 73-52 162-46 218 14 32 36 32 36 32 201 0 191-1 195-82 272-90 84-122 96-273 103l-130 5 3 95c1 52 5 101 7 108 7 18 250 6 315-15 74-25 143-69 201-130 114-120 149-218 149-422 0-117 3-140 20-168 24-40 66-62 131-70 48-6 51-5 89 36 27 28 45 60 56 99 39 131-25 454-117 592-114 170-309 313-492 359-145 37-469 54-557 29zM2739 4239c-104-10-304-57-378-90-66-29-239-128-286-163-128-96-235-204-338-340-54-72-161-287-195-396-56-176-67-241-65-415 1-182 13-257 73-436 56-170 112-272 236-429 46-58 93-118 106-134 33-43 215-175 337-245 111-63 213-102 372-142 82-20 118-23 279-23 152 0 202 4 280 21 212 48 348 102 500 196 87 55 208 147 246 188 98 105 159 183 199 254 15 28 39 67 52 87 47 70 121 292 148 443 18 97 20 373 4 459-34 183-138 418-253 573-146 197-303 329-546 457-208 111-495 161-771 135zm311-269c191-20 392-94 505-186 184-149 353-355 402-492 68-187 78-243 78-457 0-161-4-214-18-270-33-127-58-199-95-274-56-112-240-313-377-412-226-164-624-236-918-165-141 34-235 74-348 148-157 104-311 265-393 412-21 37-56 126-79 199-42 132-42 132-42 367v235l44 125c24 69 53 143 64 165 71 141 219 306 377 421 207 151 492 216 800 184zm-226-166c-20-21-34-46-35-62 0-15-1-234-2-487-1-254-6-466-11-474-8-12-50-13-255-8-233 7-248 6-278-13-33-20-55-54-67-103-9-38 24-106 70-147l35-30h327c320 0 329 1 372 23 29 14 57 39 78 71l32 49-2 558c-3 548-3 558-24 586-39 52-81 73-147 73-55 0-62-2-93-36zM615 4110c-28-11-72-60-84-93-18-46-13-118 9-155 38-62 62-69 265-77 101-4 196-4 211-1 14 4 47 26 72 50 43 41 46 47 50 106 6 77-12 117-69 155-38 25-41 25-236 24-109 0-207-4-218-9zm4108-10c-80-48-96-182-31-256 54-61 72-66 247-63 187 2 217 8 259 52 72 74 62 181-23 256-36 31-36 31-228 31-173 0-195-2-224-20zM785 3468c-64-23-103-56-120-102-33-85 2-204 72-247 30-18 46-20 161-17 124 3 130 4 166 32 53 40 76 95 76 185 0 69-2 75-33 106-18 18-51 38-72 44-50 14-210 13-250-1zm3980 7c-5-2-22-6-37-9-48-11-95-61-108-116-15-62-8-100 29-166 41-71 73-84 200-84 140 0 192 23 232 102 13 25 19 58 19 101 0 73-14 98-83 148-38 28-45 29-141 28-56 0-105-2-111-4zM747 2586c-53-20-65-32-84-92-14-46-15-61-4-109 16-73 47-107 125-140 59-25 73-27 160-23 106 4 131 16 174 78 18 27 22 47 22 110 0 93-21 133-90 168-38 19-59 22-155 22-65-1-125-6-148-14zm4023 5c-50-10-76-26-103-64-53-71-59-138-21-215 40-81 78-97 218-89 125 8 155 20 200 85 24 34 31 56 34 106 5 75-11 112-65 153-33 26-44 28-132 30-53 1-112-2-131-6zM719 1961c-130-7-155-17-183-76-42-88-25-173 43-218 33-22 56-26 185-37 223-19 293-5 340 68 49 75 42 131-25 207-59 67-75 69-360 56zm4123-1c-92-4-105-8-137-33-46-37-71-117-55-177 15-54 77-117 126-126 37-7 170-1 311 14 56 6 78 13 99 32 62 58 73 161 24 228-16 23-37 45-47 50-24 13-195 19-321 12zm-292-426c-51-22-89-62-101-107-6-22-9-87-8-146l3-106-180-5c-179-5-181-5-217-33-21-16-49-51-62-78-25-49-26-52-24-282 0-127 5-249 10-270 13-51 61-102 115-123 39-15 71-16 247-11 250 7 340 27 506 112 95 49 120 67 185 136 41 44 91 106 111 139 80 132 124 313 125 510 0 120-11 160-59 210-36 38-41 40-95 40-65 0-120-19-135-48-7-13-11-89-11-195 0-269-10-301-131-431-122-130-236-176-436-176-61 0-113 3-115 8-2 4-2 51 0 105l3 97h122c113 0 126 2 182 28 82 39 123 77 151 137 22 46 24 62 24 227 0 176 0 176-27 209-29 33-94 69-128 68-11 0-36-7-55-15zm-3496-13c-61-38-64-49-64-233 0-146 3-174 21-224 27-71 67-114 143-153 55-29 66-31 167-31h109v-72c0-40 3-91 7-112l6-39-94 7c-132 10-221 30-276 63-71 41-219 192-246 250-21 45-22 62-22 263v215l-49 33c-88 59-192 45-234-32-24-44-23-359 2-461 22-91 94-237 148-301 115-136 287-249 447-293 91-25 403-40 469-22 56 16 119 72 132 119 14 52 13 537-1 565-17 33-50 67-84 85-23 13-67 18-185 22l-155 5-5 130c-6 144-11 159-73 202-50 35-121 41-163 14zm1011-380c-56-25-112-87-131-143-13-40-15-90-12-297 3-234 4-251 24-278 53-73 154-80 224-17 63 58 70 81 70 258 0 142 2 156 18 157 9 0 52 4 95 8 88 9 112 25 143 92 15 36 16 48 6 96-13 64-28 83-90 118-41 23-54 25-176 25-105 0-139-4-171-19zm1250 2c-74-38-105-91-105-179 0-48 32-103 73-122 15-7 64-16 108-20l81-7-1-162c-2-178 5-210 55-257 39-35 124-37 175-3 55 36 70 78 68 182-1 50 1 101 5 115 11 42-9 292-27 325-21 41-85 103-129 126-50 25-256 27-303 2z"/></g></svg><svg xmlns="http://www.w3.org/2000/svg" width="576" height="580" version="1.0" viewBox="0 0 576 580"><g fill="#695525" transform="matrix(.1 0 0 -.1 0 580)"><path d="M2022 5413c-38-8-88-66-95-109-11-72-8-560 3-590 13-35 63-88 108-116 30-18 48-20 185-19 147 1 153 2 196 28 54 34 81 82 81 145 0 101-37 131-170 138l-95 5-5 215c-5 233-9 247-66 285-26 17-103 27-142 18zm1530-3c-12-5-36-31-52-57-30-47-30-47-30-250 0-112-3-203-7-203-178-4-184-5-219-42-60-67-55-156 15-225 42-43 84-53 216-53 133 0 169 9 223 56 77 65 76 61 69 390-4 194-10 300-18 318-7 15-27 36-45 47-38 23-119 33-152 19zm-2252-12c-122-14-180-28-265-60-111-43-205-106-307-206-73-71-95-100-132-176-67-135-78-186-83-378-5-155-4-170 16-210 25-53 65-78 123-78 44 0 71 13 121 58 27 26 27 26 27 162 0 152 17 233 65 316 41 71 166 188 239 224 67 33 184 53 276 48l55-3v-218l-85 2c-53 1-104-4-135-13-70-22-153-91-190-157-29-53-30-57-30-194 0-129 2-143 23-181 13-22 37-48 52-57 39-24 104-21 151 5 65 36 73 58 74 183v110l165 5c184 6 196 10 244 79 26 36 26 40 26 212 0 95-3 232-7 302-7 143-18 171-82 214-31 21-45 23-150 22-64-1-150-6-191-11zm2797 2c-47-9-86-37-110-78-16-28-19-66-24-324l-6-293 34-45c60-77 83-85 239-82 74 2 154 0 178-3l42-6v-95c0-156 37-205 161-212 65-4 68-3 105 31l39 35 3 165c4 192-1 210-87 290-81 76-124 91-274 95l-128 4 3 107 3 106 80 3c200 7 319-32 435-143 122-119 161-221 164-438 2-159 9-182 71-211 43-21 124-21 153 0 12 8 34 37 47 64 22 44 25 62 25 165 0 133-18 234-62 350-38 99-72 149-162 244-168 174-327 246-596 271-129 11-275 11-333 0zM2700 4234c-56-6-226-46-303-73-60-21-205-99-291-157-135-91-309-268-398-405-82-127-167-328-202-484-61-261-29-549 94-844 16-41 41-88 54-105s30-45 40-63c18-36 168-227 225-286 41-43 200-160 276-202 28-15 66-38 85-51 46-30 190-79 319-110 142-34 395-36 547-5 227 47 389 113 559 228 112 76 147 101 174 126 59 54 202 242 253 333 54 94 120 256 138 334 4 19 16 71 26 115 25 113 26 416 1 533-37 173-127 369-239 522-39 52-75 100-82 105-6 6-23 24-36 42-34 43-171 157-250 208-100 65-205 125-218 125-6 0-26 8-44 18-32 18-160 58-263 82-50 12-381 22-465 14zm465-278c185-40 311-102 451-219 114-96 162-148 240-259 69-97 105-176 143-308 84-296 57-611-76-878-35-71-69-118-145-202-194-215-374-326-603-371-33-6-75-16-93-21s-106-10-195-10c-149-1-172 1-283 30-202 51-386 159-536 316-173 180-218 268-307 606-14 52-9 328 7 420 16 98 83 272 140 370 63 108 202 255 334 354 130 96 325 170 503 190 82 9 351-2 420-18zm-312-126c-13-5-32-24-43-42-19-32-20-50-20-510 0-262-3-483-6-492-5-14-38-16-268-16-289 0-290 0-320-64-25-52-20-96 15-150 53-79 46-78 418-74 354 3 346 2 402 60 62 66 59 31 59 623 0 505-2 543-19 581-26 58-72 87-140 91-31 2-66-1-78-7zM707 4111c-109-6-109-6-142-43-36-39-52-101-41-161 7-35 57-94 91-107 11-4 101-11 200-15 196-7 219-4 268 43 86 81 76 203-22 269-31 21-45 23-140 21-58-1-155-4-214-7zm4022-5c-33-19-54-51-69-106-16-58-4-115 33-156 56-64 71-68 265-60 184 7 207 13 252 60 19 21 25 40 28 92 4 57 1 69-22 104-47 71-55 73-269 77-155 3-197 0-218-11zM810 3471c-119-24-175-107-150-225 13-64 51-116 100-136 19-8 68-11 144-9 127 4 142 11 200 82 26 33 30 46 34 121 4 83 4 83-31 118-22 22-52 39-80 47-50 12-161 13-217 2zm3927-5c-74-20-108-60-120-142-9-56 16-126 62-174 31-33 44-39 95-45 84-11 199 0 236 21 49 30 82 89 88 159 6 75-10 109-70 156-41 33-45 34-143 36-59 2-119-3-148-11zm68-875c-78-9-119-31-149-84-48-81-44-163 12-229 48-57 115-69 262-48 61 8 68 12 112 59 36 40 48 61 54 97 13 89-15 158-79 190-36 19-125 25-212 15zm-4082-21c-59-36-83-112-59-192 28-97 125-158 249-158 163 1 227 52 227 181 0 77-28 140-74 169-29 18-50 20-172 20-120 0-143-3-171-20zm10-609c-128-6-132-7-162-35-17-16-38-51-47-78-21-65-6-125 43-168 39-35 41-35 206-51 239-22 322 7 356 128 18 64-38 161-113 197-35 17-45 17-283 7zm3992-19c-44-27-56-46-70-106-15-66-2-112 46-162 51-52 89-59 264-45 181 15 207 22 242 68 40 52 44 128 10 186-44 75-50 77-269 77-170 0-197-2-223-18zm-162-403c-18-5-50-26-71-47-39-37-39-37-46-147-4-60-4-124 0-142l6-32-179-3c-176-3-180-4-220-30-28-18-50-45-69-83-27-57-27-57-20-301 7-279 13-302 87-351 37-24 52-27 153-31 157-6 354 12 458 42 260 76 449 248 537 489 41 112 51 177 51 358 0 141-1 148-26 184-14 21-35 46-47 56-38 32-167 20-198-18-10-12-16-72-20-232-4-168-10-226-23-262-23-61-171-221-237-254-91-47-193-68-313-66-61 1-112 3-114 5-2 3-1 49 3 104l7 100 132 4c118 3 136 6 182 30 74 39 109 72 138 130 25 50 26 59 26 222 0 150-2 175-19 202-36 58-116 91-178 73zm-3508-18c-60-36-65-53-65-236 0-138 3-173 19-215 31-81 66-118 144-156 67-32 78-34 174-34h103v-33c0-19 3-68 6-110l7-77h-49c-69 1-190 17-250 35-74 21-182 105-262 201-75 91-77 102-78 343v214l-42 30c-35 25-55 32-106 35-62 4-65 3-102-31l-39-35-3-184c-4-227 8-292 79-438 45-94 60-115 143-195 105-103 218-174 341-217 65-22 111-29 244-39 214-14 278-8 334 35 71 54 72 58 75 356 3 302 2 309-77 365-42 30-43 30-202 33l-159 3v129c0 129 0 129-32 165-61 70-143 93-203 56zm1019-375c-45-20-102-74-127-120-21-39-22-53-22-296 0-195 3-263 14-288 33-78 136-100 214-46 75 53 82 76 80 259-1 114 2 162 10 167 7 4 39 8 72 8 92 0 131 15 161 59 35 53 39 96 17 156-16 42-27 55-73 83-54 32-55 32-185 32-86-1-140-5-161-14zm1238-7c-88-44-126-153-83-238 27-52 59-67 166-76l80-7-3-150c-5-179 5-225 56-269 32-29 40-31 93-27 113 8 152 68 149 228-1 47-1 137-1 200 1 186-10 222-89 293-66 60-87 67-212 67-95 0-120-3-156-21z"/></g></svg><svg xmlns="http://www.w3.org/2000/svg" width="576" height="580" version="1.0" viewBox="0 0 576 580"><g fill="#523610" transform="matrix(.1 0 0 -.1 0 580)"><path d="M2029 5411c-98-31-99-34-102-394-2-303-2-303 27-341 16-21 49-51 74-67 45-28 48-29 188-29 79 0 154 4 168 10 14 5 43 26 65 46 41 36 41 36 41 113 0 68-3 80-22 98-40 36-65 43-152 43h-86v206c0 191-2 209-21 244-11 20-33 44-47 52-34 20-99 29-133 19zm1522-9c-22-11-43-34-58-62-22-43-23-54-22-235 1-104 1-196 0-202-1-10-28-13-99-13-105 0-120-6-151-67-17-33-14-130 4-137 8-3 15-11 15-19 0-15 34-49 65-65 33-17 253-26 301-13 50 13 132 83 150 128 16 37 18 237 5 477-9 150-9 150-39 177-29 26-87 49-122 49-8 0-31-8-49-18zm-2163 3c-3-3-50-10-104-14-130-12-179-24-273-64-106-46-191-106-288-202-113-113-170-229-202-411-15-84-14-297 1-312 7-7 9-12 5-12-17 0 27-62 56-80 57-35 105-26 180 32l37 30v141c0 226 27 296 164 433 122 121 177 144 354 152l122 5v-233h-107c-84 0-117-5-150-19-58-27-130-96-160-154-23-46-24-59-24-189 1-130 3-141 26-178 56-89 169-93 240-8 23 28 25 37 25 144v114h327l45 40c68 60 70 69 65 307-6 319-12 380-41 418-39 51-80 65-193 65-55 0-102-2-105-5zm2662-23c-19-10-45-38-58-61-23-40-24-47-25-336l-2-295 53-52 52-53 173-3c94-1 181-4 192-7 18-4 20-12 20-109 0-116 9-139 75-183 64-44 177-23 212 39 8 15 14 77 16 179 4 172 1 185-60 254-85 98-156 121-370 124l-58 1v220h114c208 0 302-35 417-154 119-122 159-235 159-453 0-116 1-123 26-152 27-32 76-51 136-51 30 0 42 7 72 42 20 23 36 52 36 65s5 23 10 23c15 0 12 180-4 275-18 107-67 246-110 311-87 131-255 272-386 325-121 49-193 59-430 65-209 5-227 4-260-14zM2705 4231c-130-15-311-67-395-113-30-17-84-46-120-66-72-39-92-53-185-131-35-30-62-58-59-63s0-7-8-6c-7 2-12-3-10-10 1-8-1-11-6-8-10 6-52-21-52-33 0-4-23-32-51-62-135-143-260-402-320-664-21-90-17-397 5-497 10-43 22-78 26-78 5 0 7-8 5-17-1-10 4-28 12-41 7-12 12-26 9-31-3-4 1-17 9-27s15-29 15-41c0-13 4-23 9-23 8 0 25-56 22-72 0-5 4-8 10-8 5 0 7-4 4-10-3-5-1-10 5-10s8-4 5-10c-3-5-1-10 4-10 6 0 11-4 11-9 0-10 58-109 75-127 6-6 19-23 30-39 11-15 37-48 58-73s46-56 55-71c16-24 58-65 104-101 10-8 31-25 46-37 15-13 33-23 40-23s10-4 7-10c-3-5 0-10 8-10s17-7 21-15c3-8 12-15 20-15s27-11 43-23c15-13 51-34 80-47s50-27 47-32-2-7 3-6c4 1 22-5 38-14 54-28 257-89 344-103 99-15 356-12 441 5 282 57 469 135 659 276 68 51 251 229 251 245 0 3 13 21 28 39 16 18 37 48 47 69 11 20 27 47 36 61 35 52 59 101 59 120 0 11 5 20 10 20 6 0 10 13 10 29 0 17 5 33 10 36 6 4 8 10 5 14-2 5 2 17 10 27s15 29 15 42c0 12 5 22 10 22 6 0 9 3 9 8-5 30 3 82 11 77 6-4 10 14 10 47 0 30 5 59 11 65 13 13 6 408-9 478-27 128-122 351-191 450-66 96-178 235-200 249-8 5-40 32-71 61-31 28-83 70-116 91-81 54-239 144-253 144-7 0-29 9-49 19-52 27-154 58-247 76-94 18-360 27-460 16zm320-251c61-6 151-21 200-34 110-30 338-135 342-159 2-12 121-107 134-107 5 0 7-4 4-10-3-5 2-10 11-10 10 0 15-3 11-6-3-3 4-16 16-29 80-83 117-124 117-132 0-6 9-18 20-28s20-24 20-30c0-7 7-18 15-25s13-16 10-20 2-13 10-20 15-18 15-25c0-8 6-26 14-42 29-58 56-140 56-171 0-11 5-24 10-27 6-3 10-29 10-56 0-28 4-58 8-67 5-9 5-91 1-182-10-202-16-254-29-258-5-2-10-18-10-36 0-39-18-96-31-96-5 0-9-11-9-24 0-30-90-187-136-239-20-21-32-43-28-50s4-9-1-5c-4 4-54-37-110-91-212-203-383-280-700-312-393-40-735 104-999 420-74 88-165 240-170 282-2 16-8 35-15 42-6 8-8 16-5 20 3 3 0 16-7 29-7 12-14 30-14 38s-4 20-8 26c-3 7-9 29-13 50-3 22-8 42-10 46-9 14-5 385 5 434 23 119 107 321 162 390 16 20 29 40 29 43 0 8 155 168 205 212 22 19 56 46 75 59s43 31 52 40c20 18 57 38 153 81 78 35 93 39 150 46 22 3 44 9 50 14 5 5 29 10 55 10 25 1 59 5 75 9 45 11 137 11 260 0zm-160-151c-16-5-39-21-50-37-19-26-20-47-25-522l-5-495-267-3-266-2-31-35c-56-65-51-132 17-207l34-38h340c331 0 342 1 375 21 38 24 96 96 87 110-3 5-1 9 4 9s9 224 8 548c-1 543-1 547-23 582-12 19-34 42-50 51-36 21-110 30-148 18zM721 4113c-116-4-147-17-178-76-24-46-22-140 3-174 46-62 62-67 237-75 195-10 234-6 284 31 97 70 98 201 2 270-46 34-35 33-348 24zm4024-2c-54-24-85-85-85-165 0-64 27-110 85-144 39-22 45-23 210-16 148 5 175 9 209 27 73 41 96 130 55 214-37 77-50 82-265 88-105 3-198 1-209-4zm39-641c-111-12-164-65-164-163 0-62 18-102 67-154l41-43h123c103 0 129 3 152 18 69 46 87 82 87 176 0 73-1 76-36 112-64 63-111 72-270 54zm-4039-28c-33-18-56-39-67-62-21-40-25-146-7-134 8 5 10-1 6-18-7-28 30-90 65-109 13-7 69-11 146-10 107 1 130 4 159 22 38 24 75 68 67 80-3 5-1 9 4 9s12 35 15 78c6 91-6 119-63 151-33 18-54 21-156 21-110 0-123-2-169-28zm-12-867c-46-20-66-56-69-131-3-45 0-63 7-58 7 4 9 0 5-13-4-12 1-27 12-39 10-10 21-26 24-35 4-9 33-29 65-45 53-25 67-28 152-26 108 3 150 18 184 66 19 27 22 41 19 116-2 72-7 89-28 117-42 55-68 63-211 63-86-1-138-5-160-15zm4013 5c-61-19-118-103-120-175 0-24 9-60 24-90 20-40 35-55 73-74 46-23 51-23 154-12 115 12 137 21 179 76 58 77 52 185-15 248-40 37-40 37-153 36-62 0-126-5-142-9zM604 1946c-37-16-68-57-82-107-11-40-5-92 9-83 5 3 6-2 3-11-10-24 21-61 69-84 32-16 62-21 117-21 40 0 88-5 106-12 45-16 197 3 233 29 99 74 92 192-16 276-36 27-36 27-222 27-134-1-195-5-217-14zm4141 5c-34-15-74-62-85-100-22-78-4-138 56-191 34-30 35-30 152-29 64 0 157 6 206 13 83 12 91 15 122 49 32 34 34 41 34 107 0 68-1 72-39 112l-39 42-193 3c-107 1-203-1-214-6zm-3680-430c-63-39-64-40-66-236-2-165-1-184 19-228 34-77 56-101 129-137 64-33 75-35 181-38l112-4V660h-72c-97 1-214 23-267 50-117 59-260 208-287 297-10 33-14 104-14 247v202l-41 26c-46 30-111 44-158 33-38-8-78-55-87-100-10-55 0-370 12-386 6-8 11-28 11-46 0-19 21-77 52-140 48-98 61-116 144-195 51-48 98-88 105-88s11-4 7-9c-8-13 118-87 210-122 87-34 204-48 404-49 106 0 131 3 168 21 89 43 103 99 103 405 0 226-4 251-48 297-51 54-71 59-233 58-114-1-150 1-154 11-2 7-6 68-8 134-3 67-10 130-15 140-25 46-103 94-154 94-13 0-36-8-53-19zm3457-7c-64-38-72-62-72-212v-130l-45-7c-25-3-74-6-108-5s-97 1-140 1c-77-1-78-1-122-42-72-66-79-106-71-378 4-128 12-232 18-245 6-11 14-28 18-36s24-28 44-45c38-30 38-30 265-29 147 0 245 5 281 13 92 21 172 51 240 90 36 19 77 42 92 49 14 8 57 46 95 87 70 75 74 79 111 132 30 42 82 169 82 199 0 13 4 24 9 24 22 0 40 395 21 441-20 46-85 99-123 99-53-1-109-17-131-40-20-19-21-34-26-238-6-254-8-261-113-383-80-93-132-128-244-165-77-25-103-29-208-29h-120v210l130 5c121 6 134 8 191 37 81 42 139 108 155 177 7 32 10 110 8 201-5 168-11 185-80 224-50 28-104 27-157-5zm-2457-378c-59-28-97-66-121-121-21-48-30-271-19-452 7-114 7-114 44-154 34-35 43-39 87-39 37 0 60 7 89 26 77 50 79 58 85 254l5 175 80 5c112 8 140 26 186 121 8 18 8 26-9 85-13 45-38 72-97 103-34 18-57 21-160 21-105 0-126-3-170-24zm1271 9c-54-19-108-75-110-113 0-17-4-28-8-25-14 8-8-52 7-73 8-12 11-24 8-28-8-7 24-44 52-59 11-6 58-14 105-17l85-5 1-171c2-192 12-230 68-266 72-45 188 4 212 89 8 27 11 119 10 269-2 251-2 255-69 330-53 61-115 84-227 83-55 0-111-6-134-14z"/></g></svg><svg xmlns="http://www.w3.org/2000/svg" width="576" height="580" version="1.0" viewBox="0 0 576 580"><g fill="#4b330d" transform="matrix(.1 0 0 -.1 0 580)"><path d="M1433 5403c-34-7-28-23 7-19 17 2 30-1 30-5 0-5-6-9-12-10-54-3-107-19-63-19 22 0 12-13-14-17-14-2-18 4-18 22s5 25 18 25c11 0 19 5 19 10 0 13-183 2-188-11-2-4-10-5-19-2-11 4-14 3-9-6 6-9-1-11-28-6-29 6-36 4-36-8 0-8 6-18 13-20 9-4 8-8-3-16-10-7-17-7-21 1-4 6-11 3-19-8-11-18-11-18-6 0 5 14 3 17-11 11-31-12-57-17-83-17-30 0-63-16-55-27 2-5-6-16-20-25-32-21-41-20-24 2 13 15 12 16-4 3-9-8-15-16-13-19 3-2-6-13-19-24-14-11-22-24-19-30 4-6 2-8-4-4-6 3-17-3-25-14-7-11-16-18-18-16s-13-6-24-17-13-16-5-12 5-2-7-14c-24-23-49-29-37-8 4 6-5 1-19-12s-25-26-25-30c1-3-8-26-21-50-17-33-25-41-32-30s-8 9-7-6c2-11-1-20-5-20-12 0-39-54-32-64 7-13-5-42-16-35-5 3-9 1-9-5 0-5 5-13 10-16 8-5 8-11 0-20-13-15-11-117 2-109 4 3 8-4 8-15 0-12 7-21 15-21s15-4 15-9 9-13 21-16c20-7 20-7-2-26-12-10-29-19-38-19-13 0-13-2-3-9 8-4 13-11 13-15-4-31 0-35 25-25 27 10 47 4 28-9-6-4-16-16-22-27-10-19-11-19-18-2-6 16-8 16-18 2-12-16-9-98 3-91 3 2 7-7 8-21 1-31 16-42 49-35 17 3 24 0 24-11 0-21 40-30 41-9 0 11 2 12 6 4 2-6 9-10 14-6 5 3 9 0 9-6s4-9 10-5c5 3 7 12 3 20-4 11-1 13 12 9 10-4 21-1 25 6 5 7 8 77 9 154 0 113 4 155 20 207 28 88 84 172 162 240 108 94 196 129 331 129 42 0 79 4 82 9 4 5-3 7-14 4s-20 0-20 6c0 16 40 14 46-3 3-8 13-12 25-9 30 8 23 19-23 33-24 7-37 15-30 17 6 3 12 11 12 19 0 9 5 12 10 9 6-4 7-11 4-17-5-7 0-9 15-5 18 4 20 3 10-9-9-11-7-14 10-14 16 0 21-6 21-26 0-14-4-23-10-19-5 3-10-1-10-9 0-10 6-13 15-10 11 5 15-1 15-25 0-23 4-29 15-25 8 4 13 10 10 14s2 14 11 21c14 11 16 10 12-11-1-14-12-30-23-35-11-6-21-23-23-39s-10-39-19-52c-8-13-14-25-14-28 3-23-8-26-101-26-88 0-111-4-155-24-73-34-142-100-136-129 3-16 2-18-5-9-7 11-10 10-16-3-3-9-3-22 1-27 3-6 1-8-4-5-17 11-23-30-23-169 0-129 0-131 31-177 50-76 129-87 204-27 40 32 40 40 0 14-43-28-201-6-171 24 4 3 10 2 14-3 11-16 54-14 48 2-4 8 2 13 16 13 18 0 19-2 7-16-12-15-11-16 11-9 14 4 29 11 34 16 15 14 26 11 26-8 0-12 7-8 25 13 20 23 22 30 10 32-10 2-13 12-9 35 3 18 5 43 5 57 0 24 0 24 14 6 8-11 15-15 15-9s-6 15-13 21-13 22-15 36c-1 19 2 24 17 21 14-3 18 1 14 16-5 18 2 19 158 19 143 0 168 2 195 19 35 21 77 75 67 85-3 3 0 6 7 6s10 3 7 7c-4 3-2 12 5 20 6 7 8 16 4 20-3 3-6 1-6-5 0-7-4-12-8-12-5 0-9 21-10 48-1 34 2 42 8 27 6-14 8-4 8 35-1 49-1 51-8 20-6-30-8-26-10 30-1 36-2 84-1 106 2 23-2 45-7 48s-8 42-7 87c3 61 0 79-9 76-8-3-12 3-11 16 1 11 7 23 13 25 7 2 8 11 2 27-5 12-6 26-2 29 3 4-4 9-16 13-12 3-19 9-16 14s-8 14-23 21-31 17-35 22c-4 6-24 10-46 10-40 1-49 20-14 29 22 6-66 6-95 0zm-367-102c-8-12-46-21-46-11 0 5 8 11 18 13 29 8 33 7 28-2zm-96-11c-8-5-19-10-25-10-5 0-3 5 5 10s20 10 25 10c6 0 3-5-5-10zm710-130c0-5-4-10-9-10-6 0-13 5-16 10-3 6 1 10 9 10 9 0 16-4 16-10zm-11-57c9-20 8-23-10-23-13 0-18-4-13-12 4-7 4-10-1-6-13 12-11 65 2 65 6 0 16-11 22-24zm-959-17c0-2-8-10-17-17-16-13-17-12-4 4s21 21 21 13zm846-16c8 0 14-4 14-10 0-5-7-10-15-10s-15 2-15 4-2 10-3 18c-2 7-2 10 0 6 3-5 11-8 19-8zm2-77c14-12 14-13-4-13-16 0-17-2-4-10 11-7 11-10 2-10-15 0-31 40-24 59 5 13 6 13 10 0 2-7 11-20 20-26zm42 27c0-5-2-10-4-10-3 0-8 5-11 10-3 6-1 10 4 10 6 0 11-4 11-10zm-95-29c-8-14-25-14-25 0 0 5 5 7 10 4 6-3 10-1 10 6s3 10 6 6c3-3 3-10-1-16zm-645-96c0-8-2-15-4-15s-6 7-10 15c-3 8-1 15 4 15 6 0 10-7 10-15zm-120-165c0-5-5-10-11-10-5 0-7 5-4 10 3 6 8 10 11 10 2 0 4-4 4-10zm-130-30c0-5-7-10-15-10s-15 5-15 10c0 6 7 10 15 10s15-4 15-10zm147-5c0-8-4-15-9-15-10 0-11 14-1 23 9 10 10 9 10-8zm-33-82c4-9 1-21-5-27-9-8-10-7-6 7 4 9 2 17-3 17-6 0-10 5-10 10 0 16 17 11 24-7zm-44-54c0-6-4-7-10-4-5 3-10 11-10 16 0 6 5 7 10 4 6-3 10-11 10-16zm40-15c0-8-5-12-10-9-6 4-8 11-5 16 9 14 15 11 15-7zm518-183c3-10 0-10-17-2-25 14-27 20-4 17 9-2 19-8 21-15zm750 1033c-16-8-28-18-29-22-2-11-7-133-8-175-1-23-5-36-11-32s-10-16-10-52c0-32-3-124-7-205-4-97-2-148 4-148s8-12 6-27c-4-28-4-28 11-3 8 14 15 19 16 12 0-7 4-11 8-8 5 3 6 26 2 52-9 57-3 84 19 84 10 0 12 3 5 8-21 13-33 76-18 97 7 10 10 23 7 29-4 6-10 0-15-14-6-18-6-14-3 15s12 45 35 63c17 13 28 28 25 33-4 5-1 9 4 9 6 0 11 5 11 11s-5 9-12 7c-13-5-48 21-48 35 0 5 7 4 15-3s15-8 15-3 15 9 34 9 34-3 34-6 0-18 2-35c1-20 4-25 8-15 4 8 14 16 22 17s25 5 38 9c17 5 23 3 22-7-5-34 0-48 16-42 13 5 13 7 2 14-7 5-9 9-5 9 18 0-15 40-33 40-11 0-20 5-20 10 0 6 5 10 11 10 5 0 7 5 4 10-3 6-2 10 4 10 5 0 11-5 13-12 8-24 27 3 22 31-4 16-1 32 5 35 13 8 15 56 3 56-5 0-9 6-9 13 0 8 6 14 13 14s10-7 7-16c-4-14-3-14 5-2 13 19 2 41-39 75-26 22-40 26-92 26-35-1-74-7-89-16zm142-11c0-7 7-13 15-13s15-4 15-10c0-12-22-9-31 4-7 9-60 10-96 2-12-3-24 1-27 9-7 19-4 20 63 20 42 0 61-4 61-12zm-100-47c0-2-8-10-17-17-16-13-17-12-4 4s21 21 21 13zm-47-26c3-11 1-20-4-20s-9 9-9 20 2 20 4 20 6-9 9-20zm27-46c0-2-9-4-20-4s-20 4-20 9 9 7 20 4 20-7 20-9zm155-4c-3-5-10-10-16-10-5 0-9 5-9 10 0 6 7 10 16 10 8 0 12-4 9-10zm-157-27c-2-9-10-18-18-20-13-4-13-3 0 6s13 11-2 11c-10 0-18 5-18 10 0 6 9 10 21 10 14 0 19-5 17-17zm46-19c5-13 4-14-7-6-8 7-18 8-22 4-5-4-5-1-1 6 10 17 23 15 30-4zm-60-95c-3-5 1-9 8-10 10 0 10-2 0-6-6-2-10-9-6-14 3-5-1-9-9-9-15 0-30 37-21 51 2 5 11 6 19 3 8-4 12-10 9-15zm-47-251c-3-8-6-5-6 6-1 11 2 17 5 13 3-3 4-12 1-19zm1577 510c-16-18-22-27-13-20 22 17 42-4 27-28-13-20-3-54 12-45 5 3 10-1 10-10s-4-14-9-10c-5 3-11-3-13-12-6-29 4-64 16-60 6 2 10 12 8 21-2 14 2 15 25 10 36-9 42-14 15-14-12 0-22-5-22-10 0-6-9-20-20-32-22-24-26-38-10-38 5 0 0-11-12-25-11-13-25-22-30-19-20 13-5-5 17-20 18-12 23-13 19-2-6 15 21 46 39 46 7 0 3-8-8-17-20-15-20-15 2-10 13 3 25 2 28-3 3-4-6-11-20-14-14-4-25-11-25-16 0-6-8-10-17-10-14 0-15-2-4-9s11-9 0-13c-10-3-7-8 9-17 27-15 29-31 2-31-19 0-25-11-20-35 1-7-2-7-9 0-5 6-11 28-14 50-3 33-4 31-5-16-1-32-8-61-15-67s-58-13-113-14c-77-3-92-5-66-12 25-7 30-11 21-22-6-7-9-25-7-41s-3-33-12-41c-13-10-12-11 4-5 13 4 17 3 12-5-4-7-2-12 3-12 6 0 11-4 11-10 0-5-7-10-15-10s-15-4-15-10c0-5 4-10 10-10 5 0 7-7 3-16-6-15 13-62 32-77 6-5-2-7-17-4-16 2-28 0-28-4 0-15 49-22 173-23 140-1 175 11 241 84 30 33 36 47 31 67-4 16-2 22 5 18 6-4 10 7 10 30 0 24-4 34-11 29-8-4-8-1-1 12 5 11 8 28 6 38-1 11-4 47-5 80-1 34-7 64-12 68-6 3-12 63-15 132s-8 126-12 126c-12 0-5 31 9 39 20 13 1 61-33 82-21 13-50 19-87 19-50 0-58-3-85-32zm146 5c0-7 7-13 15-13s15-5 15-11c0-7-7-8-17-4-10 5-31 10-48 12-24 4-32 0-40-18-12-27-35-37-35-16 0 9 3 17 8 20 4 2 2 2-5 1-17-4-35 20-23 32 14 14 130 11 130-3zm60-58c0-5-5-3-10 5s-10 20-10 25c0 6 5 3 10-5s10-19 10-25zm-120-180c0-9-9-15-22-14-13 0-17 3-9 6 11 5 11 7 0 14-10 6-8 9 9 9 13 0 22-6 22-15zm-255-335c-3-5-10-10-16-10-5 0-9 5-9 10 0 6 7 10 16 10 8 0 12-4 9-10zm771 581c-3-5-15-7-26-4-28 7-76-14-95-43-23-36-18-35 20 3 32 32 55 37 55 12 0-6-4-8-9-5-16 11-40-5-34-22 4-14 3-15-6-2-8 12-12 10-19-10-5-14-6-27-2-30s7-12 7-20 3-31 8-50c4-19 4-32 0-28-9 9-34-21-35-40 0-7 5-10 11-7 6 4 5-2-2-13-7-12-17-18-21-16-8 5-10-33-12-280-1-104 2-140 12-144 6-2 10-7 7-12-7-11 79-88 107-95 13-3 101-5 196-3 94 2 172 0 172-4s6-5 14-2c19 7 28-64 9-75-8-4-15-18-16-32 0-13-5-27-9-30-13-8 2-90 15-82 6 4 7 1 3-6-10-16 20-48 68-73 29-15 52-19 88-16 50 5 92 32 84 54-3 7 2 15 10 18 10 4 13 2 8-7-5-8-4-9 4-2 7 7 12 70 12 183 2 173 2 174-25 213-34 48-101 104-157 129-36 16-66 20-174 20h-130l-20 38c-11 20-19 52-18 70s-3 32-10 32c-6 0-3 5 7 11 13 8 15 14 7 30-9 15-7 25 9 46 12 14 21 21 21 16 0-7 57-11 153-11 83-1 147 1 140 4s-10 11-7 18-5 18-18 24c-23 12-23 12 4 9 22-3 29 1 37 24 11 33 37 38 45 11 5-13 17-18 46-19 22 0 46-5 53-11 15-13 67-13 67 0 0 6-14 7-32 2-29-6-31-5-20 9 10 12 10 16 0 20-9 4-9 6-1 6 25 2 85-42 80-58-3-12 3-16 21-16 16 0 26-6 28-17 1-10-2-18-7-18s-9-4-9-10c0-5 7-6 17-3 11 4 14 3 9-5-8-13 15-42 33-42 6 0 11-6 11-13s8-22 18-33c18-19 22-25 30-57 3-13 8-15 17-7 11 9 12 5 9-19-3-18-1-31 5-31s11-9 11-20 5-19 11-17c20 4 17-42-3-49-10-3-18-10-18-15s11-2 26 7c19 13 28 14 37 5 8-8 7-11-5-11-9 0-20-5-24-12s-3-8 4-4c8 5 12-4 12-30 0-31-2-35-15-24-15 12-39 5-30-10 3-5 1-11-4-14-11-7-3-46 10-46 4 0 6 9 4 20-2 12 0 18 6 14 6-3 19 4 30 17 10 12 19 17 19 11s8-9 18-6c9 2 6-1-8-8-35-17-36-18-20-28 12-8 10-10-7-10-14 0-23-6-23-15 0-8-7-15-16-15-13 0-15-15-13-90 2-85 5-95 31-91 4 0 5-6 2-14-4-8-1-15 5-15s11-4 11-10c0-5-8-7-17-4-10 3-3-4 15-16 35-24 102-38 102-22 0 6-6 13-12 15-9 4-8 6 2 6 10 1 7 7-10 21-14 11-20 20-13 20 6 0 15-4 18-10 10-16 45-12 45 6 0 8-4 13-9 10s-11 1-15 9c-3 8 0 15 7 15 9 0 9 2-1 8-17 11-6 37 21 50 12 6 16 11 10 11-20 1-16 41 5 41 15 0 15-2 2-11s-13-10 0-6c8 2 13 11 11 18-6 23-1 64 8 67 5 2 7 20 4 40-4 29-2 34 7 22 8-12 9-6 4 25-3 22-13 46-22 53-9 6-11 12-5 12 14 0-2 63-16 68-6 2-7 10-4 19 4 9 2 14-3 10-6-3-9 6-8 23 2 32-47 136-63 133-6-1-14 4-17 13-4 10-2 13 7 8 15-9-34 47-97 109-91 91-238 184-264 168-8-5 1-12 23-21 24-9 31-16 23-22-22-14-41-9-34 8 4 12 2 15-9 11-8-4-20-1-27 6s-22 14-33 15c-25 5-45 21-42 34 1 5-14 11-33 13-42 3-63 8-70 16-9 11-191 19-185 9 3-6-3-10-14-10-10 0-26-3-35-6-11-4-16-1-16 10 0 10-8 16-22 15-18-1-19-2-5-6 23-6 18-35-5-39-21-3-24 11-5 20 6 4 1 4-11 2-33-6-59 4-40 15 8 6 0 9-24 9-20 0-39-4-42-9zm242-32c-2-6-7-10-11-10-4 1-14 1-23 1-23 0-9 15 16 17 12 1 20-3 18-8zm37 1c-3-5-10-10-16-10-5 0-9 5-9 10 0 6 7 10 16 10 8 0 12-4 9-10zm-121-15c-4-8-8-15-10-15s-4 7-4 15 4 15 10 15c5 0 7-7 4-15zm316-1c0-2-7-4-15-4s-15 4-15 10c0 5 7 7 15 4 8-4 15-8 15-10zm-520-24c0-5-4-10-10-10-5 0-10 5-10 10 0 6 5 10 10 10 6 0 10-4 10-10zm734-66c4-9 9-14 13-10 3 3 14-1 24-10s25-14 34-11c8 4 15 2 15-3 0-6 8-10 17-10 15 0 14-2-3-14-17-13-24-11-67 20-26 19-52 32-57 29-6-4-10 1-10 9 0 21 26 20 34 0zm-160-39c-10-8-23-14-29-14-5 0-1 6 9 14 11 8 24 15 30 15 5 0 1-7-10-15zm141 5c3-5 1-10-4-10-6 0-11 5-11 10 0 6 2 10 4 10 3 0 8-4 11-10zm-95-26c0-8-7-14-15-14s-15 5-15 11c0 5-6 7-12 4-7-4-4 0 6 9 21 17 36 13 36-10zm127-6c-3-8-6-5-6 6-1 11 2 17 5 13 3-3 4-12 1-19zm63-50c0-6-6-5-15 2-8 7-15 14-15 16s7 1 15-2c8-4 15-11 15-16zm-785-78c3-5-1-10-10-10s-13 5-10 10c3 6 8 10 10 10s7-4 10-10zm965-334c0-3-4-8-10-11-5-3-10-1-10 4 0 6 5 11 10 11 6 0 10-2 10-4zm-1035-47c-6-8 9-13 29-10 5 1 3-5-4-15-9-10-16-12-18-5-2 6-8 9-13 5-5-3-9 0-9 6s-6 8-12 5c-7-4-5 0 4 8 10 8 14 18 10 22-4 5-1 5 6 1s10-12 7-17zm1145-33c0-3-4-8-10-11-5-3-10-1-10 4 0 6 5 11 10 11 6 0 10-2 10-4zm-97-40c21 8 22-3 2-23-9-8-22-12-31-9-8 3-12 2-9-4s1-10-4-10c-6 0-11 7-11 16s-5 13-12 9-2 3 11 15c16 13 27 17 31 10 4-6 14-8 23-4zm3-68c5-8 2-9-9-5-10 3-17 2-17-3s-7-7-15-4c-8 4-15 10-15 15 0 13 48 11 56-3zm-546-18c0-5-4-10-10-10-5 0-10 5-10 10 0 6 5 10 10 10 6 0 10-4 10-10zm557-6c-3-3-12-4-19-1-8 3-5 6 6 6 11 1 17-2 13-5zm30-26c-3-7-5-2-5 12s2 19 5 13c2-7 2-19 0-25zm-562 12c3-5 1-10-4-10-6 0-11 5-11 10 0 6 2 10 4 10 3 0 8-4 11-10zm519-44c-3-8-12-12-20-9-17 6-9 23 11 23 8 0 12-6 9-14zm-399-146c13-6 15-9 5-9-8 0-22 4-30 9-18 12-2 12 25 0zm200 890c3-5 8-10 11-10 2 0 4 5 4 10 0 6-5 10-11 10-5 0-7-4-4-10zm-3280 180c4-6 12-9 18-7 7 2 17-3 24-12 6-9 15-12 20-8 4 5-1 14-12 20-28 16-58 20-50 7zm-547-37c7-3 16-2 19 1 4 3-2 6-13 5-11 0-14-3-6-6zm2457-4c-4-6-5-12-2-15 2-3 7 2 10 11 7 17 1 20-8 4zm1164 0c-8-5-12-9-9-10 3 0 13-2 22-4 10-2 20 0 23 5 8 12-20 19-36 9zm-3007-13c7-8 15-12 17-11 5 6-10 25-20 25-5 0-4-6 3-14zm260-26c0-14 2-19 5-12 2 6 2 18 0 25-3 6-5 1-5-13zm284-5c-9-26-7-32 5-12 6 10 9 21 6 23-2 3-7-2-11-11zm1255-31c0-11 3-14 6-6 3 7 2 16-1 19-3 4-6-2-5-13zm530-30c0-11 3-14 6-6 3 7 2 16-1 19-3 4-6-2-5-13zm-2326-14c3-5 8-10 11-10 2 0 4 5 4 10 0 6-5 10-11 10-5 0-7-4-4-10zm3135-141c0-5 5-7 10-4 6 3 10 8 10 11 0 2-4 4-10 4-5 0-10-5-10-11zm-2734-14c-4-11 1-15 19-15 14 0 25-4 25-10 0-21 18-9 22 14 4 19 1 24-14 23-10-1-18-5-18-10s-6-4-14 2c-10 9-15 8-20-4zm-11-35c-3-5-1-10 4-10 6 0 11 5 11 10 0 6-2 10-4 10-3 0-8-4-11-10zm-46-7c-1-1-2-6-3-10-1-5-7-18-14-30-9-16-9-24 0-29 7-4 8-3 4 4-3 6 3 16 14 22s18 15 15 21c-4 5-1 9 4 9 6 0 11 4 11 8 0 8-29 13-31 5zm93-11c-7-2-9-9-5-15 4-7-1-6-10 2-15 12-17 11-17-3 0-9 1-19 3-22 3-8-46-33-55-27-9 5-16-11-21-50-2-16-9-32-15-36-18-11 31-35 57-28 12 3 21 1 21-4s-8-9-17-10c-14 0-15-2-3-6 37-15 60-72 36-92-7-6-16-8-19-4-4 3-7-1-7-10 0-10 5-17 10-17 6 0 10-11 10-24 0-18 7-26 23-29s13-5-10-6c-18 0-33 4-33 10s-8 8-18 5c-11-4-32 4-52 19-50 37-50 31-1-19 62-63 78-68 232-63 131 4 162 7 174 19 6 6-44 23-57 20-5-1-8 5-8 13s8 15 18 15c13 0 14 2 4 9-11 7-10 10 3 15 24 9 25 8 18-11-6-16-5-16 8-3 18 18 21 70 3 63-6-2-14 3-18 12-5 13-13 15-37 10-27-6-31-5-26 9 4 9 10 23 13 31 7 17-21 21-31 5-5-8-11-7-21 1-19 15-18 29 4 45 9 7 12 14 6 14s-20-11-32-25-28-25-34-24c-10 0-10 2 0 6 6 2 12 11 12 18 0 18-37 8-62-17-20-20-38-24-38-8 0 6 8 10 18 10 14 0 15 2 2 10-12 8-11 10 6 10 13 0 24 8 27 19 3 12-1 18-11 17-9 0-18 6-20 15-4 20 37 19 80-1 16-8 34-9 45-4 15 6 12 9-15 12-18 2-30 8-27 13 4 5 1 9-5 9s-11 12-9 28c1 15-1 35-5 44s-4 23 0 30-5 2-20-12c-28-25-28-25-45-4-9 11-22 19-29 16zm48-82c0-10-7-20-15-24-9-3-15 0-15 9 0 8-8 16-17 16-17 1-17 2 0 6 9 2 17 8 17 13s7 7 15 4c8-4 15-14 15-24zm-93-60c-1-11-4-20-8-20-10 0-19 27-12 34 12 12 22 5 20-14zm59-15c-4-15-11-23-17-19-8 4-7 9 2 15 11 7 11 9 1 9s-10 3 0 14c17 19 22 12 14-19zm114-91c0-2-7-4-15-4s-15 4-15 10c0 5 7 7 15 4 8-4 15-8 15-10zm-115-24c3-5 1-10-4-10-6 0-11 5-11 10 0 6 2 10 4 10 3 0 8-4 11-10zm-17-41c-2-6-8-10-13-10s-11 4-13 10 4 11 13 11 15-5 13-11zm275 4c-7-2-19-2-25 0-7 3-2 5 12 5s19-2 13-5zm-30-100c-7-2-21-2-30 0-10 3-4 5 12 5 17 0 24-2 18-5zm2397 404c0-2 15-16 33-33l32-29-29 33c-28 30-36 37-36 29zm-2452-124c7-3 16-2 19 1 4 3-2 6-13 5-11 0-14-3-6-6zm-1767-99c0-11 3-14 6-6 3 7 2 16-1 19-3 4-6-2-5-13zm1825 9c-10-10-7-25 3-18 6 3 14-3 20-12 9-16 10-16 11 3 0 21-22 39-34 27zm-346-13c0-5 5-10 10-10 6 0 10 5 10 10 0 6-4 10-10 10-5 0-10-4-10-10zm45-20c-16-7-17-9-3-9 9-1 20 4 23 9 7 11 7 11-20 0zm365-21c0-5 5-7 10-4 6 3 10 8 10 11 0 2-4 4-10 4-5 0-10-5-10-11zm862 0c2-6 8-10 13-10s11 4 13 10-4 11-13 11-15-5-13-11zm-1257-79c3-5 8-10 11-10 2 0 4 5 4 10 0 6-5 10-11 10-5 0-7-4-4-10zm2938-170c0-30 2-43 4-27 2 15 2 39 0 55-2 15-4 2-4-28zm-3706-57c-3-5-1-17 4-28 7-17 8-17 8 8 1 27-4 34-12 20zm3913-75c-19-27-20-30-3-15 11 9 22 15 24 12 3-2 5 5 5 15 0 11-1 20-1 20-1 0-12-15-25-32zm-3889 6c0-11 3-14 6-6 3 7 2 16-1 19-3 4-6-2-5-13zm3754-24c-4-6-10-8-15-5s-12 0-16-6c-4-8-3-9 4-5s12 1 12-6c1-9 5-7 14 4 7 10 17 14 21 10 5-4 5-1 1 6-9 15-13 15-21 2zm5-30c0-9 10-11 83-14 16-1 34 5 40 14 10 12 9 13-3 4-15-10-54-10-97 1-13 3-23 1-23-5zm-2372-87c-10-2-18-9-18-15 0-7 16-8 46-4 26 3 55 6 65 6 11 0 19 5 19 10 0 10-78 12-112 3zm312-4c0-4 25-9 55-11 36-2 51 0 44 7-11 11-99 14-99 4zm120-10c0-5 5-10 10-10 6-1 15-3 20-4 6-1 17-3 25-4 23-2 18-21-5-21-11 0-20-4-20-9s-12-11-27-13c-16-2-29-10-31-19-3-15 5-17 53-10 6 1 4 5-3 10-18 11 52 44 95 45 18 1 33 4 33 9 0 4-1 7-2 7-2 1-21 3-43 6s-55 9-72 14c-20 5-33 5-33-1zm-380-28c0-5 12-7 27-5 39 7 42 14 5 14-18 0-32-4-32-9zm536-16c-3-8-18-15-33-15-21 0-24-3-13-9 8-6 19-7 25-4 5 3 4 0-2-7-10-10-20-11-47-3-28 9-34 8-29-3 5-13 24-19 47-15 5 1 12-3 16-9 4-7 19-13 34-13 14-1 26-8 26-14 0-7 10-13 22-13 15 0 19-3 12-10s-19-8-37-1c-17 7-27 7-27 1s-8-10-17-10c-15 0-15 2-4 9 23 15-14 43-60 45-23 2-34-1-27-6 9-5 8-8-5-8-10 0-16-4-13-9s25-7 49-4c40 5 41 5 22-11-19-15-19-16-1-9 13 4 17 3 12-5s0-12 14-12c12 0 18-4 15-10-4-6 9-10 32-10 37 1 37 1 18 17-18 14-18 15-2 9 10-3 26-6 34-6 12 0 10-5-7-20-23-20-23-20 24-20 35 0 45-3 40-12s-2-9 9 1c26 21 21 34-10 26-22-5-25-4-16 6 10 10 9 15-3 23-13 10-12 12 5 13 12 1 21-2 21-8 0-5 9-9 20-9s20-4 20-8 14-9 30-10c17-1 30 3 30 8 0 6-5 8-12 4-6-4-17 1-24 11-12 15-11 20 4 31 15 12 14 13-13 12-16-1-36-6-43-11-9-7-11-6-6 7 3 9 1 16-5 16s-11 10-11 23c0 16 3 18 9 8 5-7 14-10 20-7 17 11 13 26-8 26-11 0-40 9-66 20-56 24-61 24-69 5zm56-23c-7-2-12-10-12-19 0-12-2-12-16 1-8 9-20 14-25 11-5-4-9-2-9 4 0 5 12 11 28 13 29 4 54-3 34-10zm43-21c-3-6-16-11-28-11-21 1-21 1 3 15 27 14 36 13 25-4zm65 0c0-5 14-14 30-21 17-7 30-16 30-21s12-9 28-9c27 1 27 1 3 21-13 11-30 18-37 15s-18 2-24 10c-14 16-30 19-30 5zm-2694-8c-115-4-139-13-174-66-8-12 4-4 26 18 51 48 55 42 6-10-20-22-34-47-33-59 0-11 0-23-1-26-6-17-5-50 2-50 4 0 8 7 8 15s7 15 16 15c8 0 13-4 9-9-3-5-1-12 5-16 5-3 10-14 10-23s16-34 36-54c34-37 34-38 12-40-46-3 159-16 270-17l113-1 50 48c43 41 50 53 55 97 8 65-12 113-62 151-35 27-43 29-138 30-56 0-150-1-210-3zm2092 0c7-3 16-2 19 1 4 3-2 6-13 5-11 0-14-3-6-6zm1927-7c-39-17-69-51-59-67 4-7 3-10-3-6-15 9-22-27-20-93 3-64 22-95 82-135 39-25 43-26 145-20 136 8 207 22 214 42 4 9 14 13 26 10 13-3 20 0 20 9 0 11 4 12 19 5 22-12 48 10 35 31-6 10-5 10 7 1 12-10 15-2 16 60 1 40-2 74-5 77-4 3-12 14-18 24-24 44-62 61-152 68-145 11-274 8-307-6zm425-46c0-5-2-10-4-10-3 0-8 5-11 10-3 6-1 10 4 10 6 0 11-4 11-10zm-480-70c0-5-2-10-4-10-3 0-8 5-11 10-3 6-1 10 4 10 6 0 11-4 11-10zm-1810 109c0-5 5-7 10-4 6 3 10 8 10 11 0 2-4 4-10 4-5 0-10-5-10-11zm140 1c-14-4-19-8-12-9 6-1 12-6 12-12 0-5-4-8-9-4-5 3-13 0-17-6-5-9 0-10 17-6 13 4 30 7 37 7 6 0 12 4 12 10 0 5-8 6-17 3-16-6-16-5-4 10 7 9 12 17 10 16s-15-5-29-9zm-480-9c0-7-4-10-9-6-5 3-12 1-16-5-3-5 1-10 9-10 17 0 31 18 22 27-3 4-6 1-6-6zm370-7c0-2 4-13 9-27 7-19 6-24-7-24-10 0-23 4-29 10-9 6-13 5-13-4 0-11-2-11-10 1-6 9-10 10-10 3 0-6-8-14-17-16-10-3 9-5 42-4 55 2 60 4 59 25 0 12 5 22 13 22s12 4 8 9c-4 8-45 12-45 5zm-290-10c1-5 9-27 20-49 16-34 24-39 22-15 0 3 14 5 31 4 41-1 67 6 67 18 0 5-4 6-10 3-5-3-10-1-10 4 0 6 5 11 11 11 5 0 7 5 4 10-4 6-28 10-53 8-26-1-55 2-64 6-10 5-18 4-18 0zm240-5c0-5 5-7 10-4 6 3 10 8 10 11 0 2-4 4-10 4-5 0-10-5-10-11zm215-8c-3-6 3-9 14-8 11 0 17 5 15 9-7 11-22 10-29-1zm472 2c-11-10-8-25 3-18 6 4 19 1 28-6 13-11 12-8-2 9-22 25-20 24-29 15zm-77-10c1-14 27-43 33-37 7 7-14 44-25 44-5 0-8-3-8-7zm-1065-13c-3-5 3-10 14-10 12 0 21 5 21 10 0 6-6 10-14 10s-18-4-21-10zm139-2c-3-4 2-8 10-8 10 0 13-6 10-15-5-11 1-15 19-15 14 0 29 5 32 10 4 6 3 10-2 9-4-1-15-1-23 1-11 1-9 4 5 9 17 7 15 9-13 13-18 2-35 1-38-4zm576 2c0-5 5-10 10-10 6 0 10 5 10 10 0 6-4 10-10 10-5 0-10-4-10-10zm-964-33c-27-17-58-37-70-44-11-7-36-30-56-51-19-22-45-42-56-46-26-8-129-122-224-249-58-77-200-382-200-430 0-5 7-4 15 3s12 17 8 24-2 7 7-1c10-9 10-15-3-27-9-9-21-16-27-16-7 0-5-7 4-16 9-8 13-21 9-27-4-7 0-6 10 1 21 18 43 6 26-14-6-7-16-11-22-7-5 3-7 1-3-5 3-6 2-13-3-17-6-3-13 10-17 30-8 45-25 46-22 1 1-19 6-32 10-30 4 3 8 0 8-5 0-6 11-11 25-11 29 0 30-3 9-34-15-23-14-24 14-31 29-6 36-24 18-42-4-4-6-2-4 6 2 7-3 16-11 19s-11 0-7-7c4-6 2-11-3-11-6 0-11-8-11-17 0-10-7-27-15-37-19-26-19-42 0-26 8 7 13 15 11 19-2 3 1 11 8 16 8 7 16 6 27-6 15-15 15-19-8-43-22-24-23-26-4-26 30 0 34-17 11-40-11-11-17-20-13-20s2-5-5-12c-19-19-14-25 17-20 16 2 37-1 48-7 15-9 12-10-14-5-21 4-33 2-33-4s7-9 15-6c8 4 15 1 15-5s-5-11-11-11c-5 0-8-4-5-9s-1-11-9-15c-8-3-15-13-15-23 0-16 1-16 13 0 8 12 16 14 27 7 12-8 13-11 1-19-9-6-10-10-2-12 7-3 9-12 6-22-4-9-10-15-14-13-3 2-6-10-5-27 1-24 6-31 24-34 29-4 40-13 17-13-21 0-22-17-3-36s27-18 20 4c-5 14-4 15 5 2 15-21 13-40-4-40-23 0-18-17 8-25 19-6 19-8 5-12-26-7-22-17 22-62 22-22 40-45 40-51 0-5 7-10 16-10 14 0 14 2 0 15-8 9-13 22-10 29s-2 16-10 19c-9 4-13 13-10 22 4 9-1 18-12 22-15 6-14 8 7 15 24 9 24 9 0 22-14 8-19 16-13 20 11 7 4 46-8 46-20 0-19 35 2 59 13 14 19 23 14 19s-21-1-37 8c-21 10-29 11-29 3 0-7-3-9-7-6-11 12 18 56 33 50 9-3 14 2 14 12 0 11-5 15-15 11-8-3-16-1-16 4-4 31-2 38 13 53 12 12 18 13 21 4 2-6 4 0 3 15 0 14-4 24-8 21-11-6-10 1 7 33 9 19 11 32 5 38-12 12-13 29-1 22 9-6 7 29-5 58-5 12-4 17 3 13 13-8 8 45-7 73-15 27-13 37 13 60 19 18 19 20 3 14-15-6-17-4-11 6 11 18 16 92 5 85-15-9-17 20-3 42 9 14 20 20 30 16 11-4 14-2 9 5-4 7-15 12-24 12-15 1-14 3 3 16 11 8 19 20 18 25-2 5 2 9 8 9 5 0 7 5 4 10-3 6 1 13 10 16 12 5 13 10 4 20-9 11-7 15 7 21 26 9 74 50 67 56-8 9 23 48 32 39 5-4 5-1 1 5-4 8 9 28 35 53 35 33 40 42 29 55s-10 15 1 10c9-3 33 14 59 42 25 26 37 41 26 33-16-13-18-12-14 5 2 13 11 20 25 19 15 0 19 4 15 15s-1 13 12 8 17-3 13 7-1 13 8 10c10-4 12 0 8 15-4 14 1 23 13 28 10 4 27 14 37 22 60 51 61 52 49 60-10 6-10 11 3 21 12 10 15 10 15-4 0-9 5-16 10-16 6 0 10 5 10 11 0 5 4 8 9 5 12-8 34 21 26 34-11 17 6 33 18 17 13-16 70-30 61-15-3 5 2 15 12 23 14 10 15 13 4 12-8-2-20-6-26-9-6-4-18 2-27 12-12 15-13 21-4 27 16 10 50 4 59-11 6-8 8-8 8 2 0 6 6 12 14 12s18 5 22 12c4 6 3 8-3 5-6-4-13 2-16 13-7 28-63 28-72 0-4-11-15-20-26-20-21 0-52-24-43-32 2-3-2-11-11-18-10-8-15-9-15-2 0 6-6 9-14 6s-17-1-21 5c-3 6-1 11 5 11s8 5 5 10c-4 6 6 10 23 10 16 0 35 7 42 15 10 12 10 15-3 15-9 0-19-5-23-11-3-6-14-9-23-7-17 4-54-26-43-36 3-3-6-6-19-6-18 0-21-2-9-9 8-6 18-7 22-5 4 3 8-1 8-9 0-13-4-13-25-4-28 14-32 25-10 33 8 4 15 12 15 19s7 15 15 19c8 3 14 11 13 18-2 7 3 12 10 11 6-2 12 4 12 12 0 19 3 20-54-18zm20-169c4-7 3-8-4-4s-12 0-12-10-3-15-6-11c-7 6 2 37 10 37 3 0 8-5 12-12zm-181-208c3-5 1-10-4-10-6 0-11 5-11 10 0 6 2 10 4 10 3 0 8-4 11-10zm-181-235c-4-8-11-12-16-9-6 4-5 10 3 15 19 12 19 11 13-6zm-64-37c0-4-7-8-15-8s-15 4-15 8c0 5 7 9 15 9s15-4 15-9zm-46-16c3-5-1-9-9-9s-15 4-15 9c0 4 4 8 9 8 6 0 12-4 15-8zm16-68c0-2-9-4-21-4-11 0-18 4-14 10 5 8 35 3 35-6zm-75-14c-3-5-16-10-28-9-21 0-21 1-2 9 28 12 37 12 30 0zm-10-40c-3-5-13-10-21-10s-12 5-9 10c3 6 13 10 21 10s12-4 9-10zm45-240c0-5-5-10-11-10-5 0-7 5-4 10 3 6 8 10 11 10 2 0 4-4 4-10zm8-187c1-24 0-25-9-10-5 9-7 22-4 27 9 15 10 13 13-17zm28-212c-7-11-56-21-56-11 0 13 13 20 37 20 13 0 22-4 19-9zm718 1434c-12-9-14-14-6-15 8 0 10-5 6-12s3-4 15 7c13 11 25 19 27 18 2-2 12-3 22-3 14 0 15 2 2 10-21 14-43 12-66-5zm1086 7c0-12 19-26 26-19 2 2-2 10-11 17-9 8-15 8-15 2zm-1222-9c7-3 16-2 19 1 4 3-2 6-13 5-11 0-14-3-6-6zm1338-7c21-15 30-14 19 3-3 6-14 11-23 11-13 0-13-2 4-14zm-219-22c3-7 9-14 14-14 14 0 10 17-5 23-10 4-13 1-9-9zm56 1c0-8 4-15 9-15 4 0 8 4 8 9 0 6-4 12-8 15-5 3-9-1-9-9zm44-19c-4-10-1-13 8-9 8 3 12 9 9 14-7 12-11 11-17-5zm39-23c-6-14-5-15 5-6 7 7 10 15 7 18s-9-2-12-12zm204-7c0-2 8-10 18-17 15-13 16-12 3 4s-21 21-21 13zm-928-129c-12-13-22-27-22-33 0-5 5-2 11 6 8 11 9 9 3-10-11-38-12-180-2-186 5-4 9 24 8 62s-1 78 0 89c1 19 2 18 10-2 5-13 17-23 27-24 16 0 16-1-2-9-17-7-17-9-2-9 9-1 17-5 17-11 0-5 14-10 31-10s28-4 24-10c-3-5-1-10 5-10 17 0 40-26 40-47 1-14 4-13 15 7 11 19 14 21 15 8 0-33 30-20 30 13 0 17 4 28 10 24 6-3 10 3 10 14s-8 25-17 31c-13 8-15 13-5 17s10 8 1 19c-7 9-8 14-1 14 6 0 15-12 20-27 9-25 11-25 11-6 1 30-17 67-39 81-18 11-19 9-15-23 5-35-7-46-22-22-4 6-16 18-26 26-16 13-20 13-28 0-6-10-9-10-9-1 0 6-7 12-15 12s-14-8-13-17c3-41-2-51-22-46-10 3-19 8-19 12 2 16-14 51-24 51-8 0-8 3 0 11 13 13 151 18 157 6 3-4 3-2 2 5-2 9-26 14-72 16-62 3-72 0-92-21zm133-57c3-5-1-10-9-10-9 0-16 5-16 10 0 6 4 10 9 10 6 0 13-4 16-10zm-30-50c3-5 2-10-4-10-5 0-13 5-16 10-3 6-2 10 4 10 5 0 13-4 16-10zm49-29c4-5-3-7-14-4-23 6-26 13-6 13 8 0 17-4 20-9zm-114 108c0-5 5-7 10-4 6 3 10 8 10 11 0 2-4 4-10 4-5 0-10-5-10-11zm-77-114c0-44 2-61 4-37 2 23 2 59 0 80-2 20-4 1-4-43zm1128 21c2-2 15-9 29-15 24-11 24-11 6 3-16 13-49 24-35 12zm54-64c9-17 23-32 30-32 9 0 12-6 9-15-4-8-1-15 5-15s11-4 11-10c0-5 14-31 30-57 18-28 28-54 24-65-3-12 0-18 10-18 9 0 16-4 16-9 0-13-37-24-51-15-8 4-9 3-5-4s16-12 27-12c10 0 19-3 19-8 0-4 10-12 22-17 11-6 25-20 29-33 8-20 7-21-12-11-20 10-20 10-2-18 9-15 24-32 31-36 11-7 10-12-5-23s-15-13-3-14c9 0 22-9 30-20 15-21 36-28 24-8-4 6-3 8 4 5 13-9 42 2 42 15 0 5-4 6-10 3-5-3-10-1-10 4 0 6-7 11-15 11s-20 10-26 22c-12 22-11 22 12 6 23-15 25-15 26 3 1 10-2 21-8 24-5 4-9 14-9 23 0 10-9 24-21 32-11 8-30 23-41 32-27 23-83 141-68 146 5 2-4 14-22 26-18 13-32 27-31 33 1 5-16 28-38 49-40 39-40 39-24 6zm215-296c0-3-4-8-10-11-5-3-10-1-10 4 0 6 5 11 10 11 6 0 10-2 10-4zm17-42c-3-3-12-4-19-1-8 3-5 6 6 6 11 1 17-2 13-5zm-1337 349c0-7-8-13-17-13-11 0-14-3-7-8 6-4 13-14 16-22 4-12 7-11 16 6 6 12 7 25 1 35s-9 10-9 2zm1180-28c0-9 9-15 21-15 18 0 19 2 9 15-7 8-16 15-21 15s-9-7-9-15zm28-32c7-3 16-2 19 1 4 3-2 6-13 5-11 0-14-3-6-6zm-1265-48c0-8 4-12 9-9s6 10 3 15c-9 13-12 11-12-6zm1302 4c-4-6-5-12-2-15 2-3 7 2 10 11 7 17 1 20-8 4zm-1264-8c-8-6-9-11-3-15 6-3 14-1 17 5 9 14 2 20-14 10zm1171-23c-7-7-12-16-12-21s7-1 16 8 14 18 12 20c-2 3-10-1-16-7zm803-27c-81-5-107-10-137-29-37-23-42-32-39-61 2-7-2-10-7-7-11 6-27-43-17-52 3-3 5 3 5 14 0 14 2 16 9 6 4-8 10-12 12-11 2 2 16-8 32-21 18-16 25-30 21-42-3-11 0-18 8-18 11 0 10-2 0-9-10-6-6-10 15-16 23-6 25-8 10-14-16-6-15-11 16-43 25-27 31-40 23-48-8-9 14-11 89-9 111 2 128 6 97 23-15 8-19 15-12 25 7 12 11 12 24 2 9-8 16-10 16-6s-8 14-17 21c-17 12-16 13 4 9 12-2 28 4 35 13 9 11 9 14 1 8-23-13-3 18 23 38 26 18 26 18 15-2-14-26-14-43 0-19 7 12 14 15 22 8 9-7 12 1 14 27 1 32 0 34-7 12-8-25-8-25-9 3-1 15 4 27 9 27 6 0 10 5 10 11 0 5-4 7-10 4-13-8-13-3 0 32 10 27 9 27-6 8s-15-19-8 8c5 24 0 34-34 67-22 22-49 40-60 40s-26 1-34 3c-7 2-58 1-113-2zm-82-196c4-8 3-16-1-19s-9 4-9 15c-2 23 3 25 10 4zM795 3460c-3-5-3-14 0-20 3-5 1-10-5-10s-8-5-5-10c4-6 1-9-7-8-8 2-13-10-15-35-2-27 1-36 10-32 7 4 2-2-10-13-27-24-29-38-7-50 15-8 15-10 0-15-9-4-16-14-16-23 0-10 5-14 15-10 9 3 15 0 15-9 0-8 7-15 16-15 14 0 14-3 3-16-7-9-9-18-3-22 5-4 15-18 23-31 13-24 13-24-25-18-29 4-34 3-22-4 10-5 70-8 135-7 106 3 118 5 115 21-2 10 3 17 12 17 10 0 13 6 9 17-5 12-2 15 10 10 8-3 21 1 27 9 9 10 9 14 1 14-6 0-11-5-11-12 0-6-3-9-6-5-3 3 1 16 10 29 10 13 16 17 16 8s5-8 15 6c10 13 17 16 22 7 5-6 10 28 11 75 3 84 2 88-25 114-15 15-41 32-56 37-36 14-244 14-252 1zm3262 3c-7-11 10-40 18-31 4 4 3 14-3 24-5 9-12 12-15 7zm73-12c0-6 4-13 10-16s7 1 4 9c-7 18-14 21-14 7zm-3377-7c4-4 1-14-6-22-10-13-9-14 11-3 27 14 27 17 5 25-10 4-14 4-10 0zm2064-121c-2-5-1-19 4-33 7-23 7-23 8 8s-3 40-12 25zm27-18c4-24 13-27 19-5 3 13 0 20-8 20-7 0-12-7-11-15zm18-77c2-6 10-13 16-14 7-1 8 0 2 3-5 2-8 9-4 14 3 5 0 9-6 9-7 0-10-5-8-12zm-1147-28c-3-5 1-10 9-10 9 0 16 5 16 10 0 6-4 10-9 10-6 0-13-4-16-10zm1101-38c-2-4-1-14 5-22 7-12 9-10 9 8 0 23-5 28-14 14zm33 6c-5-22-5-68 1-61 13 14 21 63 10 63-5 0-10-1-11-2zm138-5c-4-3-7-11-7-17s5-5 12 2c6 6 9 14 7 17-3 3-9 2-12-2zm1253-6c0-14-4-16-19-7-11 5-22 10-25 10-11 0-6-39 5-46 8-5 4-13-12-26-24-20-24-20 3-15 20 3 28-1 32-17 3-12 1-22-4-24s-7-9-4-17c3-7-2-15-11-17-14-3-13-6 6-27 12-13 18-26 13-30-5-3-9-12-10-18-2-30-5-34-26-43-21-8-21-9-3-10 17 0 17-2 5-10-13-8-12-10 3-10 9 0 17-3 17-7 0-13-19-38-28-38-5 0-16-8-25-17-16-16-16-18 0-28 17-11 17-11 1-6-22 7-23-3-3-18 18-13 4-43-15-31-9 6-9 9 1 16 11 7 10 9-5 9-14 0-17-6-14-25 6-31-7-42-21-18-9 15-11 11-12-19-2-54-3-58-13-57-15 1-31-34-18-39 21-7 13-32-10-33-13 0-18-3-12-5 9-4 9-13 1-35-10-24-9-32 3-40 13-9 13-9 0-7-8 2-15 0-15-4 0-3-8-15-18-26-9-10-15-25-13-33 3-8-8-36-24-64-16-27-35-61-42-75-20-41-45-70-53-62-5 4-5 1-1-6 5-7-23-46-76-103-46-49-82-96-80-102 1-7-5-3-14 8-16 20-16 20-12 0 2-12-2-19-9-18-7 2-12 0-11-5 3-9-81-92-94-92-5 0-6-5-2-12s3-8-5-4c-13 9-43-18-33-29 4-5 1-5-5-1-7 4-13 3-13-3s-8-7-17-4c-12 5-15 2-10-10 3-9 2-17-3-17s-9-10-7-21c1-12-4-24-10-26-9-3-11 5-8 29 5 33 5 33-5 4-5-16-15-33-22-37-10-7-10-9 2-9 15 0-29-30-64-43-14-6-17-4-12 8 3 8 1 15-5 15-7 0-10-14-7-34 4-32 2-33-25-29-16 3-41 2-55-2-21-5-23-8-11-16 7-5 10-9 4-9-5 0-3-4 5-10 11-7 8-11-15-20-46-18-99-25-91-12 4 7-4 9-25 7-42-6-50-15-13-15 17 0 24-3 17-8-7-4-9-12-5-17 10-14 62-19 62-6 0 6 16 11 35 11 21 0 35-5 35-12 0-10 2-10 8 0 5 7 16 10 25 6 10-3 17-1 17 6 0 6-4 9-9 6-4-3-17 2-27 10-10 9-13 13-6 9 6-3 12 0 12 7 0 10 2 10 9-1 5-7 13-11 19-7 5 3 12-1 16-9 4-11 11-13 30-6 13 6 27 7 30 4 3-4 6-1 6 5 0 7 13 12 28 12 36 0 67 31 50 48-7 7-8 12-4 12 5 0 15-8 23-17 8-10 12-12 8-5-3 6-1 12 4 12 18 0 12 18-6 22-15 3-14 5 5 10 15 4 22 2 22-8 0-8 5-14 10-14 13 0 49 20 68 38 11 10 17 10 28 1s14-8 14 6c0 11 5 15 15 12 8-4 17-1 21 5 4 7 3 8-4 4s-12-2-12 5 8 9 21 6c15-4 19-2 15 9-3 8 1 14 9 14s15 5 15 10c0 6 6 10 13 9 20-4 47 12 47 28 0 10 6 13 16 9 28-11 124 112 116 147-2 5 2 6 7 2 6-3 19 2 31 12 11 10 26 18 32 18s12 9 14 20 10 25 19 32c10 6 14 16 11 21-3 6 1 13 10 16 10 4 13 2 8-7-5-8-2-7 9 2 18 15 23 26 7 16-13-8-13 1 1 26 5 11 14 17 18 15 4-3 8 1 8 9s-5 11-11 8c-6-4-2 3 8 15 21 24 31 29 20 10-4-8-3-10 2-5s10 13 10 18c1 5 3 11 4 14s3 11 4 18c1 6 7 11 13 10s9 6 5 19c-3 14-1 19 6 14 6-3 14-1 18 5 4 8 3 9-4 5-16-10-17-12 22 95 47 131 46 128 64 122 13-4 14-3 3 5-8 6-12 21-9 41 2 17 1 31-4 31-4 0-8-5-8-12 0-6-3-8-7-4-5 4 0 14 10 21 23 17 23 23 0 42-10 8-13 12-6 8 13-6 39 32 29 43-3 3-6 0-6-7s-4-9-10-6c-17 11-11 32 11 38 12 3 18 10 15 15-3 6-2 12 4 14 10 3 20 104 12 126-2 6-13 12-23 12-11 0-16 5-13 13s-2 20-11 27c-16 14-21 35-5 25 9-6 15 17 10 40-4 20-3 41 4 70 3 17 3 24 0 18-3-7-10-13-15-13s-4 9 3 19c9 15 9 23-1 35-9 11-10 16-2 16 6 0 16-10 21-22 8-22 9-21 10 7 1 26 3 27 10 10 6-15 8-11 7 17-1 21-6 38-11 38s-15 8-22 18c-13 16-13 16-14-1zm24-36c3-5-5-8-19-8s-22 3-19 8 11 9 19 9 16-4 19-9zm-14-295c0-2-8-10-17-17-16-13-17-12-4 4s21 21 21 13zm30-32c0-8-4-12-10-9-5 3-10 10-10 16 0 5 5 9 10 9 6 0 10-7 10-16zm-30-60c0-8-4-12-10-9-5 3-10 13-10 21s5 12 10 9c6-3 10-13 10-21zm5-34c3-5-1-10-9-10s-18 5-21 10c-3 6 1 10 9 10s18-4 21-10zm-265-674c0-3-4-8-10-11-5-3-10-1-10 4 0 6 5 11 10 11 6 0 10-2 10-4zM2793 3115c0-22 2-30 4-17 2 12 2 30 0 40-3 9-5-1-4-23zm22-44c-3-5-2-12 3-15s9 1 9 9c0 17-3 19-12 6zm200 1c-25-5-56-32-50-43 3-4-5-10-17-12-20-4-19-4 5-6 21-1 30 5 37 25 7 17 15 24 25 20 8-3 17-1 21 5 8 14 3 16-21 11zm-223-32c0-14 2-19 5-12 2 6 2 18 0 25-3 6-5 1-5-13zm-1277-9c-3-5-1-12 5-16 5-3 10 1 10 9 0 18-6 21-15 7zm1298-15c-4-5-1-6 5-2 6 3 13 2 17-4s11-8 16-5 6-2 3-12c-5-16-4-16 10 1 9 11 16 23 16 26 0 10-61 6-67-4zm185-43c-17-4-22-18-21-50 1-8-12-13-32-13-19 0-35-6-38-14-4-10 1-13 16-10 12 2 17 2 11-1-7-3-10-15-7-25 3-11 1-20-5-20-15 0-8-30 9-41 9-5 10-9 2-9-6 0-15 4-18 10-10 16-85 7-86-10 0-10-3-8-9 5-7 16-9 17-9 3-1-9-3-22-4-30-2-7-2-10 0-5 10 17 23 5 23-23 0-19-5-30-14-30-20 0-37 25-30 43 5 14-23 16-263 16-174 1-262-3-252-9 9-5 116-10 238-10 221-1 221-1 227-26 7-27 8-28 35-14 17 10 19 7 19-25 0-22 4-34 10-30 6 3 10 0 10-9 0-8 6-17 13-19 6-3-3-8-20-12-18-4-33-12-33-17s-4-6-10-3c-5 3-10-1-10-9 0-11 9-15 33-14 17 0 46 0 62-1 30-2 30-2-10-21-22-11-58-20-80-21l-40-2 45-7c27-4-30-8-145-9-104-1-197-6-205-11-10-6 79-10 262-10 208 0 280 3 290 13 7 6 20 13 28 15 20 5 40 22 40 35 0 5-8 3-18-6-10-10-24-17-30-17-16 0-15 27 0 36 8 5 6 10-8 15-14 6-15 8-3 8 11 1 16 10 15 31-1 16-5 30-9 30-5 0-5 5-2 10 4 6 14 10 23 9 34-3 44 1 38 17-3 8 2 26 11 40 12 20 14 30 5 49-6 13-7 27-3 30 10 5 9 24-1 40-3 6-4 25-2 43 2 21-1 32-9 32s-8 3 2 9c9 6 10 10 2 16-9 5-9 10 0 21s8 14-7 13c-11-1-27-3-36-6zm12-70c0-9-3-13-7-10-3 4-12-1-19-11-7-9-15-14-19-10-3 3 4 15 16 27 27 25 29 26 29 4zm-150-143c0-5-2-10-4-10-3 0-8 5-11 10-3 6-1 10 4 10 6 0 11-4 11-10zm28-11c9-12 9-16-1-16-7 0-14 9-14 20-1 11-1 18 0 16 2-2 8-11 15-20zm52-50c0-10-4-19-10-19-5 0-7 7-4 15 4 10 0 15-11 15-9 0-14 4-10 10 9 15 35 0 35-21zm-80-36c0-12-2-12-15 1-8 8-15 17-15 20s7 3 15 0c8-4 15-13 15-21zm-30-68c0-9-6-12-16-8-13 5-13 7-2 14 17 11 18 11 18-6zm55-5c3-5 1-10-4-10-6 0-11 5-11 10 0 6 2 10 4 10 3 0 8-4 11-10zm28-27c-7-2-19-2-25 0-7 3-2 5 12 5s19-2 13-5zm52-3c-3-5-10-10-16-10-5 0-9 5-9 10 0 6 7 10 16 10 8 0 12-4 9-10zm-11-26c9-3 14-10 11-15-7-10-35 0-35 12 0 11 3 11 24 3zm-44 406c0-5 9-10 20-10s20 5 20 10c0 6-9 10-20 10s-20-4-20-10zm-1399-15c-2-24 14-33 29-17 13 14 12 15-2 9-9-3-19-1-22 6-2 7-5 8-5 2zm1329-47c0-5 5-8 10-8 6 0 10-4 10-10 0-5-6-8-12-6-7 1-10 1-5-1 4-3 5-9 1-14-3-5-1-9 5-9s17 13 25 29c15 28 15 29-9 27-14 0-25-4-25-8zm1270-49c0-5 5-7 10-4 6 3 10 8 10 11 0 2-4 4-10 4-5 0-10-5-10-11zm-2565-9c-3-5-1-10 4-10 6 0 11 5 11 10 0 6-2 10-4 10-3 0-8-4-11-10zm43 3c7-3 16-2 19 1 4 3-2 6-13 5-11 0-14-3-6-6zm631-90-24-28 28 24c25 23 32 31 24 31-2 0-14-12-28-27zm431-7c0-9 50-12 62-5 8 6-1 9-24 9-21 0-38-2-38-4zm45-66c-3-5 1-10 9-10 9 0 16 5 16 10 0 6-4 10-9 10-6 0-13-4-16-10zm-1095-20c0-5 5-10 10-10 6 0 10 5 10 10 0 6-4 10-10 10-5 0-10-4-10-10zm1140 10c-1-3-3-13-5-22-5-26 31-23 38 2 3 11 1 20-4 20s-9-8-10-17c0-15-2-15-9 2-5 11-9 18-10 15zm-1960-73c16-12 25-71 10-62-4 3-14-8-22-25-7-16-17-30-21-30-5 0-2-7 7-15 8-8 19-15 25-15s11-4 11-10c0-5 8-10 18-11 9 0-1-9-23-20l-40-19 40 5c29 4 36 3 25-4-13-10-13-11 0-11 9 0 11-3 5-8-11-8-15-52-4-52 12 0 17-39 5-44-30-12 28-26 115-26 105 0 139 13 182 72 24 32 25 130 2 184-12 30-27 46-24 27 4-25-5-23-36 7-19 19-35 39-35 46 0 20-26 24-143 24-90-1-109-3-97-13zm230-16c0-4-11-6-25-3-14 2-25 6-25 8s11 4 25 4 25-4 25-9zm3764 15c-3-8-19-19-35-25-37-13-55-58-54-132 1-41-2-56-11-52-7 2-18-5-24-17-9-17-7-27 10-56 32-51 70-66 159-65 129 2 201 21 178 46-7 7-15 11-19 8-5-2-8 0-8 6 0 5 5 13 10 16 6 4 8 11 5 16-4 5 1 9 10 9 8 0 18 7 21 15 4 9 11 15 18 14 26-5 43 12 39 39-4 21-2 24 6 12 9-12 11-9 11 15s-2 27-11 15c-8-12-9-10-4 7 8 28-4 73-20 73-12 0-75 29-75 34 0 2 11 1 25-2 33-6 32 11 0 26-39 18-224 16-231-2zm183-312c-3-3-12-4-19-1-8 3-5 6 6 6 11 1 17-2 13-5zm-1958 299c-13-16-12-17 4-4s21 21 13 21c-2 0-10-8-17-17zm2031-23c0-5 7-10 16-10 8 0 12 5 9 10-3 6-10 10-16 10-5 0-9-4-9-10zm-3970-10c0-5 7-7 15-4 8 4 15 8 15 10s-7 4-15 4-15-4-15-10zm1210-18c0-16 38-24 86-19 35 3 34 4-11 5-28 1-56 7-63 14-9 9-12 9-12 0zm2392-112c0-14 2-19 5-12 2 6 2 18 0 25-3 6-5 1-5-13zm-3917 0c-3-5-1-10 4-10 6 0 11 5 11 10 0 6-2 10-4 10-3 0-8-4-11-10zm1070-10c-4-6-11-7-17-4-7 4-8 2-4-4 10-16 23-15 30 3 6 17 0 20-9 5zm2816-26c0-11 3-14 6-6 3 7 2 16-1 19-3 4-6-2-5-13zm-2836-84c-4-6-11-8-16-5s-6-1-3-9c5-12 8-12 25 2 10 9 19 18 19 19 0 8-20 2-25-7zm1924-267c-13-16-12-17 4-4 9 7 17 15 17 17 0 8-8 3-21-13zm-2997-61c-84-2-112-6-109-15 2-7 13-11 25-11 12 1 19-3 16-7-3-5-12-9-21-9-13 0-13-3-3-15s10-18-1-32c-10-12-10-15-1-9 10 6 10 2 0-21-6-15-15-32-20-37-17-21-6-49 37-92 33-32 40-44 28-45-13 0-11-3 7-11 14-5 51-7 83-4 34 3 57 2 57-4s37-10 88-10c71 0 96 4 132 23 50 25 90 83 90 132 0 36-33 101-50 97-6-1-9 2-6 7 6 8-47 60-62 62-25 3-196 4-290 1zm309-35c13-7 25-19 27-27s9-18 15-22 9-10 5-13c-3-3-13 1-21 10-18 18-47 20-47 3 0-6-3-8-6-5-4 4-1 13 6 22s10 19 6 22c-4 4-11 1-16-7-7-11-9-9-7 8 2 26 6 27 38 9zm-386-117c-3-5-1-10 4-10 6 0 11-4 11-10 0-5-9-10-20-10s-20 2-20 4c0 14 14 36 22 36 5 0 6-4 3-10zm43-43c8-10 5-12-16-11-38 3-39 4-17 14 11 5 21 9 21 9 1 1 6-5 12-12zm95-94c-7-2-21-2-30 0-10 3-4 5 12 5 17 0 24-2 18-5zm3962 284c-44-21-78-62-79-96-1-16-4-27-8-24-18 10-6-75 15-112 35-62 77-85 156-85 88 0 245 20 249 31 2 5 8 9 13 9 6 0 7-5 4-11-5-7 3-9 22-7 31 3 93 49 93 67 0 6 4 11 8 11 5 0 9 14 10 32 1 25-2 29-9 18-8-11-9-3-6 28 3 24 1 40-4 36-5-3-9 0-9 5 0 6-7 11-15 11s-14 6-12 13c1 6-4 11-10 10-7-2-13 3-13 11s8 16 18 18c13 3 9 8-15 21-46 24-363 35-408 14zm400-27c-3-5-13-10-21-10s-14 5-14 10c0 6 9 10 21 10 11 0 17-4 14-10zm25-235c-24-25-40-25-40 2 0 9 6 13 15 10 8-4 17-2 20 3 4 6 11 10 17 10s1-11-12-25zm-107-22c-7-2-19-2-25 0-7 3-2 5 12 5s19-2 13-5zm-2886 256c12-12 24-21 27-18 2 2-8 13-22 23-27 19-27 19-5-5zm3013-21c0-9 5-20 10-23 13-8 13 5 0 25-8 13-10 13-10-2zm-2950-22c0-2 8-10 18-17 15-13 16-12 3 4s-21 21-21 13zm-1652-63c7-3 16-2 19 1 4 3-2 6-13 5-11 0-14-3-6-6zm2622-103c0-5 7-10 16-10 8 0 12 5 9 10-3 6-10 10-16 10-5 0-9-4-9-10zm121-26c0-11 3-14 6-6 3 7 2 16-1 19-3 4-6-2-5-13zm-338-6c-6-12 49-9 67 2 11 7 5 9-23 7-22-1-41-5-44-9zm238-4c0-11 3-14 6-6 3 7 2 16-1 19-3 4-6-2-5-13zm-476-11c28-8 66-14 85-13 41 1 68 20 30 20-14 0-56 2-95 4l-70 3 50-14zm156-39c0-11 3-14 6-6 3 7 2 16-1 19-3 4-6-2-5-13zm186-1c-4-3-7-12-7-20 0-16 26-17 36-1 5 8 2 9-10 5-14-5-17-3-12 8 6 16 3 19-7 8zm89-19c-4-10 3-14 19-14 33 0 41 17 10 22-14 3-26 0-29-8zm-161-34c-3-6 1-13 10-16 21-9 26-2 10 13-9 8-16 9-20 3zm41-27c-9-22-7-40 2-28 4 6 18 15 32 21 25 11 25 11-2 16-18 3-29 0-32-9zm-156-2c-14-4-20-10-14-14 6-3 20 0 30 8 21 16 20 16-16 6zm-1835-15c-42-18-69-51-62-76 3-11 1-20-4-20-6 0-9-67-9-165 1-116 5-163 13-158 6 4 8 0 4-10-8-21 2-49 14-41 5 3 6-2 3-10s0-24 8-35c13-18 14-14 11 34-2 46 1 55 17 60 11 4 20 13 20 20 0 20 20 29 33 16 8-8 6-11-6-11-9 0-17-5-17-10 0-6 3-9 8-9 26 4 34-1 22-16-11-13-10-14 4-9 9 3 16 1 16-4 0-6 9-14 20-17s20-10 20-15-7-7-15-4c-8 4-15 1-15-5s5-11 10-11c6 0 9-4 8-9-2-5 0-8 3-7 7 1 39-30 39-39 0-3-4-3-10 0-5 3-10 1-10-5 0-7 9-14 20-17s20-10 20-15c0-6-7-8-15-4-8 3-15 0-15-5 0-7-9-9-22-5s-31 9-40 11-26 9-37 15c-12 6-21 8-21 5s30-20 68-38c64-31 72-32 185-31 69 0 113-3 105-8-10-7-10-11 3-21 17-13 35-52 19-42-6 3-8-20-5-61 4-58 2-70-15-86-19-18-28-18-128-9-154 14-224 39-314 110-40 32-97 86-125 119-28 34-54 58-57 54-4-3-4 1-1 10 3 8 0 22-7 29-15 17-14-2-16 258l-2 210-35 27c-39 29-111 47-135 33-10-6-11-9-2-10 6-1 17-3 22-4 6-1 22-4 38-5 28-2 23-4-41-15-26-4-37-10-34-19 3-8 0-19-6-25-9-9-8-14 3-21 16-10 15-12-15-28-11-6-14-12-7-12s10-5 7-10c-3-6 0-13 8-16 9-3 18-16 21-30 4-13 11-24 16-24 16 0 12-37-6-55-15-14-14-15 15-10 18 3 31 1 31-5 0-5-6-10-14-10-7 0-16-9-19-20-3-13 0-20 9-20 12 0 16-12 13-36 0-4 5-11 13-15 10-7 8-9-6-9-12 0-16 5-12 15 3 8 1 15-5 15s-7 5-3 12 3 8-5 4c-6-4-9-11-6-16 3-4 0-10-7-12-6-2-12-12-14-22-2-11 2-16 11-12 10 3 13-3 12-22-2-18-10-28-27-33-25-7-25-7 3-8 31-1 38-21 7-21-11 0-20-5-20-11 0-5 5-7 10-4 15 9 51-5 44-17-4-6-10-5-15 3-7 11-9 9-9-6 0-12-6-27-12-35-7-8-3-7 8 3 19 16 22 16 28 2 3-9 2-14-3-11s-13 0-19-7c-15-17 2-42 23-34 10 4 14 3 9-4-4-6-1-15 6-19 9-6 7-10-8-14-21-7-21-7-1-27 11-11 17-25 13-31-5-7 2-9 22-5 27 5 27 4 9-9-16-12-17-14-2-14 9 0 17-4 17-8 0-5 11-15 25-22s25-20 25-27 8-17 17-20c9-4 30-19 47-35 30-29 41-34 50-19 7 10 106-8 106-20 0-10-2-10-38-14-12-1-25-5-29-9-11-11 35-6 63 6 22 10 28 10 32 0 2-6 12-12 23-12 10 0 19-4 19-9s10-11 23-14c12-2 31-8 41-12 12-5 17-5 13 2-3 5 1 10 9 10s13-7 12-16c-2-9-11-15-19-13-9 1-16-5-16-13 0-24 48-19 54 5 3 11 10 20 15 20s6-4 3-10c-4-6 5-10 20-10 17 0 25-5 23-12-3-7 1-18 8-25 16-17 27-17 19 0-4 6 0 5 7-4 9-11 25-15 48-13 19 2 26 1 15-2-35-10-42-25-8-18 20 4 33 2 38-7 6-8 4-10-5-4-8 5-11 3-8-6 6-18 203-26 223-9 13 11 45 3 58-14 5-7 7-3 5 9-2 15 2 19 16 17 14-3 17 1 13 12-6 14 4 21 26 17 11-2 8 14-5 27-9 9-9 12 1 12s10 4 3 13c-10 12-7 151 4 168 3 5 1 9-4 9s-8 19-6 43c3 23 4 69 4 102 0 40 3 55 9 46 12-19 26 86 17 134-8 40-55 99-97 121-30 15-285 21-275 6 2-4-4-8-15-8-10 0-19 4-19 8s-6 8-14 8c-15 0-29 34-26 64 1 11-3 15-9 12-6-4-11-4-12 1-6 69-4 125 7 157 13 37 13 41-11 71-26 35-98 75-131 75-10-1-32-7-49-14zm-350-326c-3-5-12-10-18-10-7 0-6 4 3 10 19 12 23 12 15 0zm346-65c5 3 6-1 3-10-9-23-28-13-32 16-2 21-1 22 8 6 6-9 15-15 21-12zm159-75c0-5-4-10-10-10-5 0-10 5-10 10 0 6 5 10 10 10 6 0 10-4 10-10zM715 820c-3-5-11-10-16-10-6 0-7 5-4 10 3 6 11 10 16 10 6 0 7-4 4-10zm782-75c0-8-4-12-9-9-4 3-8 9-8 15 0 5 4 9 8 9 5 0 9-7 9-15zm-476-38c-10-9-11-8-5 6 3 10 9 15 12 12s0-11-7-18zm53-12c16-12 17-15 4-15-8 0-21 7-28 15-16 19-1 19 24 0zm-34-15c0-5 7-10 15-10 24 0 75-29 75-43 0-8-4-7-10 3-5 8-10 11-10 6s-9-1-21 10c-22 20-25 20-48 1-12-10-13-9-7 1 5 8 1 19-10 27-18 13-18 14-1 15 9 0 17-4 17-10zm153-37c-7-2-19-2-25 0-7 3-2 5 12 5s19-2 13-5zm114 1c-3-3-12-4-19-1-8 3-5 6 6 6 11 1 17-2 13-5zm-227-19c11-13 10-14-4-9-9 3-16 10-16 15 0 13 6 11 20-6zm110-20c14-19 14-19-2-6-10 7-18 18-18 24s1 8 3 6c1-2 9-13 17-24zm64-1c3-8 2-12-4-9s-10 10-10 16c0 14 7 11 14-7zm36-6c0-6-6-5-15 2-8 7-15 14-15 16s7 1 15-2c8-4 15-11 15-16zm-130 2c0-5-2-10-4-10-3 0-8 5-11 10-3 6-1 10 4 10 6 0 11-4 11-10zm2055 930c-3-5-2-10 4-10 5 0 13 5 16 10 3 6 2 10-4 10-5 0-13-4-16-10zm1302-20c-50-32-50-31-49-100 0-45 0-45-8-10-5 23-8-11-7-103l2-137h-60c-34 0-66-5-73-12-8-8-12-8-12-1 0 18-204 17-238-1-45-24-70-58-67-93 1-18-2-30-6-28-4 3-9 2-12-2-5-10 1 12 10 34 4 10 3 14-5 9-26-16-36-183-23-383 1-7 7-13 15-13s16-7 20-15c3-8 10-15 16-15s8 6 5 13c-4 6 0 4 8-5 8-10 17-15 20-11 4 3 7 1 7-6 0-6-7-14-16-18-8-3-13-11-10-19 3-7 0-15-7-18-7-2-5-5 5-5 9-1 20 4 23 9 3 6 1 10-5 10s-8 5-4 11c4 7 9 8 13 1 3-5 15-11 26-13 16-4 14-7-15-21-19-10-28-18-20-18s21 4 29 9c20 13 54-9 40-25-7-9-5-15 7-22 11-6 15-16 11-26s-11-14-17-11-7-1-4-9c3-9 13-16 21-16 9 0 13 6 10 15-4 8-2 17 3 20 9 6 14-8 11-27 0-5 29-9 67-9 55-1 61-3 32-9s-31-8-10-10c14-1 37-4 53-6 20-3 27-1 27 11 0 8 9 15 20 15 14 0 18-5 14-17-5-16-4-16 10 1 13 16 24 18 73 12 105-12 168-13 175-3 3 6 20 10 37 10 16 0 28 4 25 9-3 4 5 9 18 9 30 2 29 2 53-7 20-7 20-7 0 9-18 15-18 16-2 17 9 0 20 0 24-1 3 0 10 6 15 15s15 13 25 9 14-2 10 4c-7 11 28 45 37 36 3-3 13 0 23 8 13 11 15 11 9 1-7-11-4-11 13 0 12 7 21 16 21 21 0 4 5 5 10 2 6-3 10 3 10 13 0 24 25 46 41 36 8-4 9-3 5 5-7 11 12 38 26 37 4-1 16 7 27 16s21 14 24 12c3-3 4 3 4 13-1 10 4 17 11 15 8-1 11 1 8 6-2 4 8 29 23 55 22 38 30 44 40 34 11-10 11-8 1 12-10 19-9 25 1 32 7 4 17 5 21 3 4-3 5 2 2 10-3 9-9 14-14 11-4-2-12 7-18 20-7 15-8 26-2 30s10-4 11-17c0-23 0-23 10 1 8 20 11 22 27 10 15-13 16-12 3 3-7 10-18 15-25 11-6-4-6 0 2 9 7 9 12 20 11 24-4 24 2 36 16 30 12-4 13-2 3 14-9 14-20 18-38 14-19-4-21-3-11 4 12 9 12 13 2 26-12 14-10 16 8 16 26 0 27 21 2 37-13 8-17 19-14 37 5 27 17 33 28 16 3-5 1-10-6-10-8 0-8-5 2-16 12-14 14-13 22 12 4 16 10 67 12 114 5 114 6 119 15 90 8-25 8-25 9-2 1 16-6 26-19 29-11 3-20 12-20 19 0 8-5 14-11 14-5 0-7 6-3 13 5 7 0 6-11-3-17-14-18-13-12 2 4 12-2 19-25 27-17 6-40 11-52 12-14 1-10 4 13 11 49 14 25 30-33 22-28-4-60-17-75-30-26-22-26-22-26-237 0-119-3-213-7-211-8 5-12-26-9-55 2-7-2-11-6-8-5 3-15-9-23-26-8-18-24-40-37-51-13-10-22-20-20-22 3-3-102-114-108-114-1 0-26-13-56-30-46-26-49-29-21-24 21 4 32 3 32-5 0-10-13-15-32-12-5 0-8-6-8-15 0-8-4-13-9-9-5 3-13 1-16-5-5-8-11-7-21 1-11 9-14 9-14-1 0-8-3-10-7-7-3 4-17 0-30-8-13-9-24-13-24-10-1 3-2 9-3 14-2 19-14 21-52 11l-39-9 38 2c22 2 37-1 37-8s-7-12-15-13c-52-6-78-4-85 7-5 10-12 7-24-10-9-13-16-18-16-11s-4 11-9 7c-5-3-12-1-16 5-9 14-45 13-45-2 0-7-7-2-16 10-10 14-22 21-31 18-12-5-14-1-10 15 4 15 2 19-9 15-10-4-14 3-14 23 0 34-24 84-35 73-4-4-5 0-3 8 3 8 11 14 18 12 8-2 11 5 8 22-3 14-1 31 3 38 7 10 9 10 9 1 0-7 7-13 15-13s15 7 15 15c0 17-9 16 140 18 101 2 122 5 170 28 91 42 166 120 152 158-3 8 0 11 7 7 12-8 13 19 11 249-1 133-7 150-70 193-48 32-104 29-163-8zm-154-367c-7-2-19-2-25 0-7 3-2 5 12 5s19-2 13-5zm614-45c-3-7-5-2-5 12s2 19 5 13c2-7 2-19 0-25zm203-83c0-8-4-15-9-15-13 0-22 16-14 24 11 11 23 6 23-9zm-442-296c-2-6-8-10-13-10s-11 4-13 10 4 11 13 11 15-5 13-11zm-664-20c-2-4 1-9 8-11 7-3 2-7-10-10-16-5-22-2-22 11 0 10 7 18 15 18s12-4 9-8zm180-72c-5-7-2-7 10 2 13 11 20 11 28 3 9-9 9-12 0-12-7 0-12-7-12-16 0-13-3-14-13-5-8 6-16 9-18 6-3-2-5 12-6 32-1 28 2 32 9 20 5-10 6-23 2-30zm309-24c-3-7-9-13-14-13s-9 6-9 13c0 8 6 14 14 14s12-6 9-14zm-73 3c0-3-4-8-10-11-5-3-10-1-10 4 0 6 5 11 10 11 6 0 10-2 10-4zm-174-31c-3-9 0-15 10-15 8 0 12-5 9-10-10-16-35 8-28 26 3 8 7 14 10 14s3-7-1-15zm8-105c-7-7-18-7-35 0-22 10-23 10-2 6 13-2 26 0 29 6 3 5 9 7 12 3 3-3 1-10-4-15zm-71 3c-7-2-19-2-25 0-7 3-2 5 12 5s19-2 13-5zm314-9c-3-3-12-4-19-1-8 3-5 6 6 6 11 1 17-2 13-5zM573 1500c-18-11-33-22-33-25 0-4 10 1 21 9 12 8 27 12 33 10 7-3 13 2 13 11 0 8-1 15-1 15-1 0-16-9-33-20zm2545 13c7-3 16-2 19 1 4 3-2 6-13 5-11 0-14-3-6-6zm2032-13c0-5 5-10 11-10 5 0 7 5 4 10-3 6-8 10-11 10-2 0-4-4-4-10zm-4570-44c0-2 7-7 16-10 8-3 12-2 9 4-6 10-25 14-25 6zm4620-9c0-8 6-20 13-26 10-8 14-7 14 2 0 7-6 18-14 25-10 10-13 10-13-1zm-3098-296c-87-22-163-108-171-194-10-106-6-354 6-368 8-10 9-20 3-29-6-8-9-35-9-60 1-35 3-39 8-20s9 22 16 11c7-12 10-11 16 5 7 19 7 19 15-1 22-57 121-103 143-67 7 11 11 10 24-2 13-14 16-14 27 0 11 12 10 13-6 7-15-5-17-4-8 8 21 27 24 49 7 42-13-5-13-2 2 21l18 27 20-28c10-15 15-19 11-8-5 11-9 61-9 112 0 50-2 91-5 91-21-2-27 6-26 31 1 17 6 27 13 24s10 3 6 16c-5 19-15 26-36 22-5-1-5 3-2 9 5 8 14 6 30-4 18-12 26-13 31-4 4 7 2 14-4 16-7 2-12 10-12 18s-6 14-12 15c-7 0-4 4 7 9 11 4 24 4 30-1 12-12 28-12 21 0-3 5 4 11 15 14 14 4 18 10 13 19-6 11-5 11 8 0 11-9 23-10 42-2 31 11 34 20 6 15-11-2-22 1-26 6-3 5-2 9 3 8 4-1 25-1 46 0 31 1 37 5 37 22 0 16 5 20 19 16 11-3 22 1 25 9 4 11-3 13-30 9-19-2-40-7-47-10-6-4-1 2 13 13 13 11 27 20 30 20 24-2 29 5 26 32-3 30-34 75-44 65-3-3-12 4-19 15-8 11-18 18-22 16-4-3-13-1-21 5-11 6-8 9 13 9 15 0 27-4 27-9 0-4 10-8 23-7 12 1 26-3 30-9 5-6 7-5 5 3s-8 13-13 13c-6 0-18 8-29 17-14 14-41 17-135 19-64 1-131-2-149-6zm-145-228c-3-10-5-4-5 12 0 17 2 24 5 18 2-7 2-21 0-30zm68 18c3-5 1-12-5-16-5-3-10 1-10 9 0 18 6 21 15 7zm283-8c-5-7-14-10-19-7-16 10-9 23 10 21 15-1 17-4 9-14zm-302-23c21 0 17-37-6-60s-25-31-6-24c8 3 17 1 21-5 4-8 11-7 21 3 16 17 19 46 4 46-5 0-10 5-10 12 0 8 6 6 17-5 9-9 17-29 18-44 0-17 5-27 13-25 7 1 15-5 18-13s11-12 18-8c6 4 5-1-3-10-7-9-17-15-21-12-5 3-19 1-32-4-17-7-18-10-5-10 9-1 17-8 17-16 0-25 1-29 11-42 7-7 6-14-1-18-6-3-8-10-5-15s1-11-5-15c-5-3-10 1-10 9 0 9-4 16-10 16s-6-9 0-25c5-14 6-25 3-25-4 0-2-5 5-12s12-16 12-22c0-5-10 1-22 14-20 21-23 22-26 7-2-9-10-17-19-17-12 0-13 3-4 13 6 8 8 17 5 20s-3 11 1 17c6 9 10 9 17-1 8-11 9-10 5 2-3 9 1 27 10 38 8 12 13 24 10 27-8 9-57-8-51-17 3-5 0-9-6-9-7 0-10 7-6 15 3 8 0 15-7 15-6 0-1 7 11 16 25 17 31 47 7 38-8-4-13-10-10-14 3-5 1-11-4-14-5-4-12-2-15 3-4 5-2 12 3 15s6 21 2 38c-9 40-4 58 16 58 11 0 13 4 6 13-5 6-10 26-11 42-1 17 1 24 4 18 3-7 12-13 20-13zm217-20c3-11 1-18-4-14-5 3-9 12-9 20 0 20 7 17 13-6zm-276-27c-3-10-5-4-5 12 0 17 2 24 5 18 2-7 2-21 0-30zm3-65c0-24 0-50 1-58 1-22-11-93-16-99-3-2-5 38-5 91 0 83 4 108 17 108 2 0 3-19 3-42zm197-15c-4-3 3-17 15-30 21-23 21-23-3-23-13 0-35-3-49-5-24-5-24-5-2 4 12 6 22 15 22 21s-6 8-12 4c-7-4-4 2 6 14 11 12 21 22 24 22s2-3-1-7zm-11-119c-4-9-9-15-11-12-3 3-3 13 1 22s9 15 11 12c3-3 3-13-1-22zm16-16c-8-8-9-4-5 13 4 13 8 18 11 10 2-7-1-18-6-23zm38-52c0-2-8-10-17-17-16-13-17-12-4 4s21 21 21 13zm-170-36c0-5-4-10-10-10-5 0-10 5-10 10 0 6 5 10 10 10 6 0 10-4 10-10zm180 0c0-5-5-10-11-10-5 0-7 5-4 10 3 6 8 10 11 10 2 0 4-4 4-10zm-145-40c3-5 1-10-4-10-6 0-11 5-11 10 0 6 2 10 4 10 3 0 8-4 11-10zm1300 631c-16-3-29-10-27-14 2-5-8-17-22-28-15-11-26-25-26-31s-8-17-17-24c-17-13-17-15 5-33 15-13 18-21 10-24-10-3-10-8-2-16s18-9 37-2c17 7 28 7 32 1s-5-10-18-10-26-3-30-6c-10-10 20-34 42-34 12 0 21-4 21-10 0-5 14-10 31-10 18 0 28 4 24 10s-11 7-17 4c-6-4-8-2-5 4 10 15 49 2 43-15-3-8-2-12 3-9s11-3 14-14c8-33-35-53-102-47-44 5-49 4-21-3 19-5 63-9 97-9 73 0 83-4 83-36 0-13 5-25 11-27 13-4 16-99 4-118-6-9-9-9-16 1-6 10-9 8-9-7s8-24 25-28c27-7 25-34-3-32-11 1-18-8-20-23-2-13 0-21 6-17 5 3 17-12 26-33 8-22 27-51 42-65 24-22 30-23 47-11 12 9 28 10 47 5 18-5 32-4 39 3 15 15 14-5-1-23-7-8-2-6 12 5s26 21 28 22c2 0-1 11-8 22-8 16-8 21 2 21 8 0 9 3 1 11-7 7-7 27-1 59s5 57-1 68c-6 10-7 29-4 40 3 12 0 28-6 35-7 10-7 24 1 53l11 39 12-35c12-31 13-23 9 75-2 61-6 124-9 142-9 49-76 127-136 157-46 23-64 26-143 25-50-1-104-4-121-8zm-10-201c-3-5-11-10-16-10-6 0-7 5-4 10 3 6 11 10 16 10 6 0 7-4 4-10zm155-100c0-5-5-10-11-10-5 0-7 5-4 10 3 6 8 10 11 10 2 0 4-4 4-10zm255-18c2-12-1-25-7-28-7-4-8-2-4 4 4 7 3 12-2 12-6 0-8 9-5 20 6 24 12 21 18-8zm-42-117c4-8 3-16-1-19s-9 4-9 15c-2 23 3 25 10 4zm-454 378c-13-16-12-17 4-4s21 21 13 21c-2 0-10-8-17-17zm-2678-39c0-11 3-14 6-6 3 7 2 16-1 19-3 4-6-2-5-13zm599-114c0-5 5-10 11-10 5 0 7 5 4 10-3 6-8 10-11 10-2 0-4-4-4-10zm2169-48c24-19 57-20 45-1-3 5-9 7-14 4s-20-1-32 5c-22 11-22 10 1-8zm-991-49c7-3 16-2 19 1 4 3-2 6-13 5-11 0-14-3-6-6zm2232-164c0-5 5-7 10-4 6 3 10 8 10 11 0 2-4 4-10 4-5 0-10-5-10-11zM895 620c-3-6 5-10 19-10s28 5 31 10c3 6-5 10-19 10s-28-4-31-10zm3190-81c-4-6-13-8-21-5-22 8-16-18 6-32 26-16 46-6 29 15-10 12-10 16 2 24 9 5 10 9 2 9-6 0-15-5-18-11zm-2995-9c-8-5-10-10-5-10 6 0 17 5 25 10s11 10 5 10c-5 0-17-5-25-10zm123-38c0-12 5-22 9-22 11 0 10 12-2 30-7 12-9 10-7-8zm3495-49c7-3 16-2 19 1 4 3-2 6-13 5-11 0-14-3-6-6zm-1073-13c-3-5-1-10 4-10 6 0 11 5 11 10 0 6-2 10-4 10-3 0-8-4-11-10zm-1660-22c12-30 125-53 140-29 3 6-18 9-49 8-41-1-60 4-76 18-17 15-20 16-15 3zm1635-22c0-10 28-13 41-5 10 6 7 9-13 9-16 0-28-2-28-4z"/></g></svg></g></svg>